<?xml version="1.0" encoding="utf-8"?>
<!-- Generator: Adobe Illustrator 16.0.0, SVG Export Plug-In . SVG Version: 6.00 Build 0)  -->
<!DOCTYPE svg PUBLIC "-//W3C//DTD SVG 1.1//EN" "http://www.w3.org/Graphics/SVG/1.1/DTD/svg11.dtd">
<svg version="1.1" xmlns="http://www.w3.org/2000/svg" xmlns:xlink="http://www.w3.org/1999/xlink" x="0px" y="0px"
	 width="1730.727px" height="1941px" viewBox="0 0 1730.727 1941" enable-background="new 0 0 1730.727 1941" xml:space="preserve">
<g id="_x32_1">
	<rect x="-0.273" y="679.5" stroke="#000000" stroke-miterlimit="10" width="1731" height="590"/>
	<g>
		<g>
			<path fill="#009245" d="M1125.583,285.144v108.771l-28.44-0.076v-50.679l-22.542,21.558l-20.951-20.726l-0.076,49.922h-27.986
				V285.144l49.014,41.905L1125.583,285.144z"/>
			<path fill="#009245" d="M1210.979,338.243c2.269,5.095,3.404,10.542,3.404,16.338v0.682c0,0.253-0.027,0.529-0.076,0.831
				l-0.15,1.287h-9.381v0.151h-52.04c0.605,4.236,2.447,7.894,5.522,10.967c3.884,3.834,8.421,5.75,13.614,5.75
				c5.244,0,9.784-1.916,13.616-5.75l0.15-0.151l0.228-0.302l0.228-0.227l0.15-0.228l13.011,18.608
				c-3.732,3.025-7.516,5.321-11.348,6.882c-5.143,2.016-10.487,3.027-16.035,3.027c-7.514,0-14.498-1.791-20.951-5.372
				c-6.605-3.63-11.825-8.596-15.657-14.901c-3.934-6.303-5.9-13.387-5.9-21.255c0-5.898,1.134-11.345,3.404-16.338
				c2.27-5.042,5.396-9.429,9.379-13.162c4.033-3.832,8.573-6.731,13.616-8.698c5.193-2.016,10.563-3.026,16.109-3.026
				c5.548,0,10.893,1.01,16.035,3.026c5.094,1.967,9.656,4.841,13.692,8.623C1205.583,328.687,1208.71,333.099,1210.979,338.243z
				 M1171.873,335.217c-3.378,0-6.556,0.858-9.529,2.572c-1.816,1.109-3.581,2.673-5.296,4.689h29.652
				c-1.717-2.016-3.479-3.58-5.296-4.689C1178.427,336.075,1175.252,335.217,1171.873,335.217z"/>
			<path fill="#009245" d="M1277.767,339.755c-2.167-1.815-4.537-3.177-7.109-4.084c-2.673-0.907-5.495-1.361-8.472-1.361
				c-5.549,0-10.236,1.79-14.068,5.37c-3.883,3.582-5.824,8.019-5.824,13.314c0,4.134,0.832,7.84,2.496,11.118
				c1.614,3.278,4.008,5.876,7.186,7.792c3.076,1.967,6.63,2.948,10.666,2.948c5.949,0,11.043-1.89,15.279-5.671l13.235,16.792
				c-1.916,2.018-4.588,3.809-8.017,5.37c-3.479,1.563-7.061,2.723-10.742,3.479c-3.681,0.756-7.084,1.134-10.211,1.134
				c-8.775,0-16.516-1.842-23.222-5.521c-6.706-3.732-11.851-8.625-15.43-14.674c-3.581-6.152-5.37-12.732-5.37-19.742
				c0-6.405,1.084-12.204,3.252-17.398c2.218-5.294,5.269-9.833,9.153-13.615c3.83-3.68,8.494-6.581,13.992-8.699
				c5.446-2.068,11.319-3.101,17.624-3.101c5.143,0,10.16,0.807,15.052,2.42c4.941,1.665,9.304,4.008,13.088,7.034L1277.767,339.755
				z"/>
			<path fill="#009245" d="M1319.144,286.43v34.491c2.317-2.369,5.191-4.235,8.622-5.597c3.479-1.361,7.008-2.042,10.589-2.042
				c19.413,0,29.123,11.372,29.123,34.113v46.443l-24.205,0.076V349.06c0-4.639-1.061-8.12-3.179-10.439
				c-2.117-2.318-5.094-3.479-8.926-3.479c-3.731,0-6.654,1.161-8.772,3.479c-2.169,2.32-3.252,5.8-3.252,10.439v44.778
				l-24.205,0.15V286.505L1319.144,286.43z"/>
			<path fill="#009245" d="M1435.929,391.569c-1.614,0.708-2.798,1.185-3.554,1.438c-5.347,2.067-10.943,3.101-16.794,3.101
				c-7.715,0-15.001-1.791-21.857-5.372c-6.859-3.63-12.306-8.571-16.339-14.825c-4.085-6.353-6.127-13.437-6.127-21.254
				c0-5.901,1.184-11.396,3.554-16.49c2.371-5.042,5.623-9.429,9.759-13.161c4.085-3.731,8.824-6.581,14.219-8.548
				c5.396-2.067,10.993-3.101,16.792-3.101c5.75,0,11.348,1.01,16.794,3.026c5.444,2.017,10.186,4.892,14.219,8.623
				c4.236,3.832,7.514,8.22,9.833,13.161c2.371,5.094,3.557,10.589,3.557,16.49l-0.077,39.408l-23.978-0.227V391.569z
				 M1398.184,344.899c-1.864,2.976-2.797,6.228-2.797,9.758c0,5.344,2.016,9.96,6.052,13.841c3.982,3.834,8.698,5.75,14.143,5.75
				c5.497,0,10.236-1.916,14.222-5.75c4.033-3.881,6.052-8.497,6.052-13.841c0-3.53-0.935-6.782-2.8-9.758
				c-1.865-2.975-4.361-5.345-7.487-7.11c-3.076-1.714-6.405-2.572-9.986-2.572c-3.479,0-6.782,0.858-9.907,2.572
				C1402.547,339.554,1400.049,341.924,1398.184,344.899z"/>
			<path fill="#009245" d="M1497.197,335.217c-6.151,0.253-9.228,4.538-9.228,12.86v45.761h-24.205v-45.761
				c0-22.038,11.144-33.61,33.433-34.72h1.361c22.289,1.11,33.433,12.682,33.433,34.72v45.761h-24.202v-45.761
				c0-8.322-3.078-12.607-9.23-12.86H1497.197z"/>
			<path fill="#009245" d="M1559.221,300.953c-1.109,1.866-2.621,3.378-4.537,4.539c-1.916,1.16-4.036,1.739-6.354,1.739
				c-2.32,0-4.414-0.554-6.279-1.664c-1.916-1.16-3.429-2.698-4.537-4.614c-1.162-2.017-1.74-4.16-1.74-6.43
				c0-2.319,0.555-4.437,1.663-6.354c1.211-1.967,2.749-3.505,4.614-4.614s3.959-1.665,6.279-1.665c2.317,0,4.438,0.556,6.354,1.665
				c1.864,1.109,3.377,2.646,4.537,4.614c1.108,1.917,1.665,4.035,1.665,6.354C1560.886,296.943,1560.33,299.088,1559.221,300.953z
				 M1560.81,316.458v77.53h-24.129v-77.455L1560.81,316.458z"/>
			<path fill="#009245" d="M1624.272,339.755c-2.167-1.815-4.537-3.177-7.109-4.084c-2.673-0.907-5.496-1.361-8.472-1.361
				c-5.549,0-10.236,1.79-14.068,5.37c-3.883,3.582-5.824,8.019-5.824,13.314c0,4.134,0.833,7.84,2.495,11.118
				c1.615,3.278,4.009,5.876,7.187,7.792c3.076,1.967,6.63,2.948,10.666,2.948c5.949,0,11.043-1.89,15.279-5.671l13.235,16.792
				c-1.916,2.018-4.588,3.809-8.017,5.37c-3.479,1.563-7.061,2.723-10.742,3.479c-3.681,0.756-7.084,1.134-10.211,1.134
				c-8.775,0-16.516-1.842-23.222-5.521c-6.706-3.732-11.851-8.625-15.43-14.674c-3.582-6.152-5.37-12.732-5.37-19.742
				c0-6.405,1.083-12.204,3.252-17.398c2.218-5.294,5.269-9.833,9.153-13.615c3.83-3.68,8.494-6.581,13.992-8.699
				c5.446-2.068,11.319-3.101,17.624-3.101c5.143,0,10.16,0.807,15.052,2.42c4.941,1.665,9.305,4.008,13.088,7.034L1624.272,339.755
				z"/>
		</g>
		<polygon fill="#019147" points="824.55,171.209 738.811,109.32 738.811,189.418 738.811,251.223 677.007,251.223 677.007,311.278 
			738.811,311.278 738.811,366.668 677.007,366.668 677.007,426.141 738.811,426.141 738.811,487.943 787.789,487.943 
			787.789,426.141 863.585,426.141 863.585,366.668 787.789,366.668 787.789,311.278 863.585,311.278 863.585,251.223 
			787.8,251.223 787.899,196.233 824.55,226.842 863.585,195.321 863.585,251.223 913.729,251.223 913.729,189.418 913.729,109.32 
					"/>
		<polygon opacity="0.8" fill="#019147" points="975.533,311.278 975.533,251.223 913.729,251.223 863.585,251.223 863.585,311.278 
			863.585,366.668 863.585,426.141 863.585,487.943 913.729,487.943 913.729,426.141 975.533,426.141 975.533,366.668 
			913.729,366.668 913.729,311.278 		"/>
		<g>
			<path fill="#009245" d="M132.879,528.509v81.456l-21.298-0.057v-37.953l-16.882,16.146l-15.69-15.521l-0.057,37.386H57.994
				v-81.456l36.706,31.381L132.879,528.509z"/>
			<path fill="#009245" d="M196.832,568.274c1.699,3.815,2.549,7.894,2.549,12.235v0.51c0,0.189-0.021,0.396-0.057,0.622
				l-0.113,0.964h-7.025v0.113h-38.972c0.454,3.172,1.833,5.911,4.135,8.214c2.909,2.871,6.307,4.306,10.196,4.306
				c3.927,0,7.326-1.435,10.196-4.306l0.112-0.113l0.171-0.227l0.169-0.17l0.113-0.171l9.744,13.936
				c-2.795,2.266-5.628,3.985-8.498,5.154c-3.851,1.509-7.854,2.267-12.008,2.267c-5.627,0-10.857-1.341-15.69-4.022
				c-4.946-2.719-8.856-6.438-11.726-11.16c-2.946-4.72-4.418-10.025-4.418-15.916c0-4.418,0.85-8.497,2.549-12.235
				c1.7-3.776,4.042-7.063,7.023-9.857c3.021-2.87,6.421-5.041,10.198-6.514c3.89-1.51,7.91-2.267,12.064-2.267
				c4.154,0,8.157,0.757,12.008,2.267c3.815,1.473,7.231,3.625,10.253,6.457C192.792,561.117,195.134,564.422,196.832,568.274z
				 M167.546,566.008c-2.531,0-4.91,0.643-7.137,1.926c-1.36,0.83-2.682,2.002-3.967,3.512h22.207
				c-1.286-1.51-2.605-2.682-3.965-3.512C172.455,566.65,170.077,566.008,167.546,566.008z"/>
			<path fill="#009245" d="M246.849,569.406c-1.624-1.359-3.397-2.379-5.324-3.059c-2.002-0.68-4.116-1.02-6.345-1.02
				c-4.155,0-7.666,1.34-10.536,4.021c-2.908,2.682-4.362,6.005-4.362,9.972c0,3.096,0.623,5.871,1.87,8.326
				c1.209,2.454,3.001,4.399,5.381,5.834c2.304,1.474,4.966,2.208,7.988,2.208c4.455,0,8.27-1.415,11.442-4.247l9.913,12.575
				c-1.435,1.512-3.436,2.852-6.004,4.021c-2.605,1.171-5.288,2.039-8.044,2.605c-2.756,0.566-5.305,0.85-7.647,0.85
				c-6.572,0-12.368-1.379-17.39-4.135c-5.023-2.795-8.875-6.458-11.555-10.989c-2.683-4.606-4.022-9.535-4.022-14.784
				c0-4.796,0.812-9.139,2.436-13.029c1.662-3.965,3.946-7.363,6.855-10.196c2.868-2.756,6.361-4.928,10.479-6.514
				c4.078-1.549,8.476-2.322,13.198-2.322c3.851,0,7.609,0.604,11.273,1.812c3.7,1.247,6.966,3.003,9.801,5.269L246.849,569.406z"/>
			<path fill="#009245" d="M277.836,529.472v25.83c1.735-1.774,3.888-3.172,6.457-4.192c2.606-1.02,5.248-1.529,7.93-1.529
				c14.538,0,21.81,8.517,21.81,25.547v34.781l-18.127,0.057v-33.591c0-3.474-0.794-6.08-2.381-7.817
				c-1.585-1.736-3.814-2.605-6.684-2.605c-2.794,0-4.983,0.869-6.569,2.605c-1.625,1.737-2.436,4.344-2.436,7.817v33.534
				l-18.127,0.112v-80.492L277.836,529.472z"/>
			<path fill="#009245" d="M365.295,608.209c-1.209,0.53-2.096,0.889-2.662,1.077c-4.003,1.548-8.195,2.322-12.576,2.322
				c-5.778,0-11.235-1.341-16.369-4.022c-5.137-2.719-9.216-6.419-12.236-11.103c-3.059-4.758-4.589-10.063-4.589-15.917
				c0-4.419,0.887-8.535,2.662-12.35c1.776-3.776,4.211-7.061,7.308-9.856c3.06-2.794,6.608-4.928,10.648-6.401
				c4.041-1.547,8.233-2.322,12.576-2.322c4.306,0,8.498,0.757,12.576,2.267c4.078,1.51,7.628,3.663,10.648,6.457
				c3.172,2.87,5.627,6.156,7.364,9.856c1.776,3.814,2.664,7.931,2.664,12.35l-0.059,29.512l-17.956-0.17V608.209z M337.027,573.259
				c-1.396,2.229-2.094,4.664-2.094,7.308c0,4.002,1.509,7.46,4.533,10.366c2.982,2.871,6.513,4.306,10.591,4.306
				c4.116,0,7.666-1.435,10.649-4.306c3.021-2.906,4.533-6.364,4.533-10.366c0-2.644-0.701-5.079-2.097-7.308
				c-1.397-2.229-3.266-4.003-5.606-5.325c-2.304-1.283-4.798-1.926-7.479-1.926c-2.607,0-5.08,0.643-7.42,1.926
				C340.295,569.256,338.424,571.03,337.027,573.259z"/>
			<path fill="#009245" d="M411.177,566.008c-4.607,0.189-6.911,3.398-6.911,9.631v34.27H386.14v-34.27
				c0-16.504,8.346-25.171,25.038-26.002h1.02c16.691,0.831,25.036,9.498,25.036,26.002v34.27h-18.124v-34.27
				c0-6.232-2.305-9.441-6.912-9.631H411.177z"/>
			<path fill="#009245" d="M457.625,540.348c-0.831,1.398-1.963,2.53-3.398,3.398c-1.435,0.869-3.022,1.303-4.758,1.303
				c-1.737,0-3.305-0.414-4.702-1.246c-1.435-0.868-2.567-2.021-3.398-3.455c-0.87-1.511-1.303-3.116-1.303-4.815
				c0-1.736,0.416-3.321,1.246-4.758c0.907-1.474,2.058-2.624,3.455-3.455s2.965-1.246,4.702-1.246c1.736,0,3.323,0.415,4.758,1.246
				c1.397,0.831,2.529,1.981,3.398,3.455c0.831,1.437,1.248,3.021,1.248,4.758C458.873,537.345,458.456,538.951,457.625,540.348z
				 M458.816,551.959v58.062h-18.07v-58.005L458.816,551.959z"/>
			<path fill="#009245" d="M506.341,569.406c-1.622-1.359-3.398-2.379-5.324-3.059c-2.001-0.68-4.116-1.02-6.344-1.02
				c-4.155,0-7.666,1.34-10.535,4.021c-2.908,2.682-4.362,6.005-4.362,9.972c0,3.096,0.623,5.871,1.868,8.326
				c1.21,2.454,3.003,4.399,5.383,5.834c2.304,1.474,4.964,2.208,7.987,2.208c4.455,0,8.27-1.415,11.442-4.247l9.911,12.575
				c-1.435,1.512-3.436,2.852-6.003,4.021c-2.606,1.171-5.287,2.039-8.045,2.605c-2.757,0.566-5.305,0.85-7.646,0.85
				c-6.571,0-12.368-1.379-17.392-4.135c-5.021-2.795-8.874-6.458-11.555-10.989c-2.683-4.606-4.021-9.535-4.021-14.784
				c0-4.796,0.811-9.139,2.435-13.029c1.66-3.965,3.945-7.363,6.854-10.196c2.868-2.756,6.361-4.928,10.479-6.514
				c4.079-1.549,8.478-2.322,13.199-2.322c3.852,0,7.608,0.604,11.271,1.812c3.7,1.247,6.968,3.003,9.801,5.269L506.341,569.406z"/>
		</g>
		<g>
			<polygon fill="#019147" points="285.461,171.209 199.722,109.32 199.722,189.418 199.722,251.223 137.918,251.223 
				137.918,311.278 199.722,311.278 199.722,366.668 137.918,366.668 137.918,426.141 199.722,426.141 199.722,487.943 
				248.699,487.943 248.699,426.141 324.496,426.141 324.496,366.668 248.699,366.668 248.699,311.278 324.496,311.278 
				324.496,251.223 248.711,251.223 248.81,196.233 285.461,226.842 324.496,195.321 324.496,251.223 374.64,251.223 
				374.64,189.418 374.64,109.32 			"/>
			<polygon opacity="0.8" fill="#019147" points="436.443,311.278 436.443,251.223 374.64,251.223 324.496,251.223 324.496,311.278 
				324.496,366.668 324.496,426.141 324.496,487.943 374.64,487.943 374.64,426.141 436.443,426.141 436.443,366.668 
				374.64,366.668 374.64,311.278 			"/>
		</g>
	</g>
	<g>
		<path fill="#FFFFFF" d="M1125.583,893.144v108.771l-28.44-0.076v-50.679l-22.542,21.558l-20.951-20.725l-0.076,49.922h-27.986
			V893.144l49.014,41.905L1125.583,893.144z"/>
		<path fill="#FFFFFF" d="M1210.979,946.242c2.269,5.096,3.404,10.542,3.404,16.338v0.683c0,0.253-0.027,0.528-0.076,0.831
			l-0.15,1.287h-9.381v0.15h-52.04c0.605,4.236,2.447,7.894,5.522,10.967c3.884,3.834,8.421,5.75,13.614,5.75
			c5.244,0,9.784-1.916,13.616-5.75l0.15-0.15l0.228-0.302l0.228-0.228l0.15-0.227l13.011,18.607
			c-3.732,3.025-7.516,5.321-11.348,6.883c-5.143,2.016-10.487,3.026-16.035,3.026c-7.514,0-14.498-1.79-20.951-5.372
			c-6.605-3.63-11.825-8.596-15.657-14.9c-3.934-6.303-5.9-13.387-5.9-21.256c0-5.898,1.134-11.345,3.404-16.338
			c2.27-5.041,5.396-9.429,9.379-13.161c4.033-3.832,8.573-6.731,13.616-8.698c5.193-2.016,10.563-3.025,16.109-3.025
			c5.548,0,10.893,1.01,16.035,3.025c5.094,1.967,9.656,4.841,13.692,8.623C1205.583,936.688,1208.71,941.1,1210.979,946.242z
			 M1171.873,943.217c-3.378,0-6.556,0.858-9.529,2.572c-1.816,1.109-3.581,2.674-5.296,4.689h29.652
			c-1.717-2.016-3.479-3.58-5.296-4.689C1178.427,944.075,1175.252,943.217,1171.873,943.217z"/>
		<path fill="#FFFFFF" d="M1277.767,947.755c-2.167-1.815-4.537-3.177-7.109-4.085c-2.673-0.906-5.495-1.36-8.472-1.36
			c-5.549,0-10.236,1.79-14.068,5.37c-3.883,3.582-5.824,8.019-5.824,13.314c0,4.134,0.832,7.84,2.496,11.117
			c1.614,3.278,4.008,5.877,7.186,7.792c3.076,1.968,6.63,2.948,10.666,2.948c5.949,0,11.043-1.891,15.279-5.672l13.235,16.793
			c-1.916,2.018-4.588,3.809-8.017,5.369c-3.479,1.563-7.061,2.723-10.742,3.479c-3.681,0.757-7.084,1.134-10.211,1.134
			c-8.775,0-16.516-1.842-23.222-5.52c-6.706-3.732-11.851-8.625-15.43-14.674c-3.581-6.152-5.37-12.732-5.37-19.742
			c0-6.405,1.084-12.204,3.252-17.398c2.218-5.295,5.269-9.833,9.153-13.615c3.83-3.68,8.494-6.58,13.992-8.699
			c5.446-2.067,11.319-3.101,17.624-3.101c5.143,0,10.16,0.808,15.052,2.421c4.941,1.664,9.304,4.008,13.088,7.033L1277.767,947.755
			z"/>
		<path fill="#FFFFFF" d="M1319.144,894.43v34.491c2.317-2.369,5.191-4.235,8.622-5.597c3.479-1.361,7.008-2.043,10.589-2.043
			c19.413,0,29.123,11.372,29.123,34.113v46.443l-24.205,0.076v-44.854c0-4.64-1.061-8.12-3.179-10.439
			c-2.117-2.318-5.094-3.48-8.926-3.48c-3.731,0-6.654,1.162-8.772,3.48c-2.169,2.319-3.252,5.8-3.252,10.439v44.777l-24.205,0.15
			V894.505L1319.144,894.43z"/>
		<path fill="#FFFFFF" d="M1435.929,999.569c-1.614,0.708-2.798,1.185-3.554,1.438c-5.347,2.066-10.943,3.101-16.794,3.101
			c-7.715,0-15.001-1.79-21.857-5.372c-6.859-3.63-12.306-8.57-16.339-14.824c-4.085-6.354-6.127-13.438-6.127-21.255
			c0-5.901,1.184-11.396,3.554-16.49c2.371-5.042,5.623-9.429,9.759-13.161c4.085-3.73,8.824-6.58,14.219-8.548
			c5.396-2.067,10.993-3.101,16.792-3.101c5.75,0,11.348,1.01,16.794,3.025c5.444,2.017,10.186,4.893,14.219,8.623
			c4.236,3.832,7.514,8.22,9.833,13.161c2.371,5.095,3.557,10.589,3.557,16.49l-0.077,39.407l-23.978-0.227V999.569z
			 M1398.184,952.898c-1.864,2.977-2.797,6.229-2.797,9.759c0,5.345,2.016,9.96,6.052,13.841c3.982,3.834,8.698,5.75,14.143,5.75
			c5.497,0,10.236-1.916,14.222-5.75c4.033-3.881,6.052-8.496,6.052-13.841c0-3.53-0.935-6.782-2.8-9.759
			c-1.865-2.975-4.361-5.344-7.487-7.109c-3.076-1.714-6.405-2.572-9.986-2.572c-3.479,0-6.782,0.858-9.907,2.572
			C1402.547,947.555,1400.049,949.924,1398.184,952.898z"/>
		<path fill="#FFFFFF" d="M1497.197,943.217c-6.151,0.253-9.228,4.538-9.228,12.859v45.762h-24.205v-45.762
			c0-22.037,11.144-33.609,33.433-34.719h1.361c22.289,1.109,33.433,12.682,33.433,34.719v45.762h-24.202v-45.762
			c0-8.321-3.078-12.606-9.23-12.859H1497.197z"/>
		<path fill="#FFFFFF" d="M1559.221,908.953c-1.109,1.865-2.621,3.378-4.537,4.538c-1.916,1.159-4.036,1.739-6.354,1.739
			c-2.32,0-4.414-0.555-6.279-1.664c-1.916-1.16-3.429-2.697-4.537-4.613c-1.162-2.018-1.74-4.16-1.74-6.43
			c0-2.319,0.555-4.438,1.663-6.354c1.211-1.968,2.749-3.506,4.614-4.614s3.959-1.665,6.279-1.665c2.317,0,4.438,0.557,6.354,1.665
			c1.864,1.108,3.377,2.646,4.537,4.614c1.108,1.916,1.665,4.034,1.665,6.354C1560.886,904.943,1560.33,907.088,1559.221,908.953z
			 M1560.81,924.458v77.53h-24.129v-77.455L1560.81,924.458z"/>
		<path fill="#FFFFFF" d="M1624.272,947.755c-2.167-1.815-4.537-3.177-7.109-4.085c-2.673-0.906-5.496-1.36-8.472-1.36
			c-5.549,0-10.236,1.79-14.068,5.37c-3.883,3.582-5.824,8.019-5.824,13.314c0,4.134,0.833,7.84,2.495,11.117
			c1.615,3.278,4.009,5.877,7.187,7.792c3.076,1.968,6.63,2.948,10.666,2.948c5.949,0,11.043-1.891,15.279-5.672l13.235,16.793
			c-1.916,2.018-4.588,3.809-8.017,5.369c-3.479,1.563-7.061,2.723-10.742,3.479c-3.681,0.757-7.084,1.134-10.211,1.134
			c-8.775,0-16.516-1.842-23.222-5.52c-6.706-3.732-11.851-8.625-15.43-14.674c-3.582-6.152-5.37-12.732-5.37-19.742
			c0-6.405,1.083-12.204,3.252-17.398c2.218-5.295,5.269-9.833,9.153-13.615c3.83-3.68,8.494-6.58,13.992-8.699
			c5.446-2.067,11.319-3.101,17.624-3.101c5.143,0,10.16,0.808,15.052,2.421c4.941,1.664,9.305,4.008,13.088,7.033L1624.272,947.755
			z"/>
	</g>
	<polygon fill="#FFFFFF" points="824.55,779.209 738.811,717.32 738.811,797.418 738.811,859.223 677.007,859.223 677.007,919.277 
		738.811,919.277 738.811,974.668 677.007,974.668 677.007,1034.141 738.811,1034.141 738.811,1095.943 787.789,1095.943 
		787.789,1034.141 863.585,1034.141 863.585,974.668 787.789,974.668 787.789,919.277 863.585,919.277 863.585,859.223 
		787.8,859.223 787.899,804.232 824.55,834.842 863.585,803.32 863.585,859.223 913.729,859.223 913.729,797.418 913.729,717.32 	
		"/>
	<polygon fill="#FFFFFF" stroke="#000000" stroke-miterlimit="10" points="975.533,919.277 975.533,859.223 913.729,859.223 
		863.585,859.223 863.585,919.277 863.585,974.668 863.585,1034.141 863.585,1095.943 913.729,1095.943 913.729,1034.141 
		975.533,1034.141 975.533,974.668 913.729,974.668 913.729,919.277 	"/>
	<g>
		<path fill="#FFFFFF" d="M132.879,1136.509v81.456l-21.298-0.057v-37.953l-16.882,16.146l-15.69-15.521l-0.057,37.386H57.994
			v-81.456l36.706,31.381L132.879,1136.509z"/>
		<path fill="#FFFFFF" d="M196.832,1176.274c1.699,3.815,2.549,7.894,2.549,12.235v0.51c0,0.189-0.021,0.396-0.057,0.622
			l-0.113,0.964h-7.025v0.113h-38.972c0.454,3.172,1.833,5.911,4.135,8.214c2.909,2.871,6.307,4.306,10.196,4.306
			c3.927,0,7.326-1.435,10.196-4.306l0.112-0.113l0.171-0.227l0.169-0.17l0.113-0.171l9.744,13.936
			c-2.795,2.266-5.628,3.985-8.498,5.154c-3.851,1.509-7.854,2.267-12.008,2.267c-5.627,0-10.857-1.341-15.69-4.022
			c-4.946-2.719-8.856-6.438-11.726-11.16c-2.946-4.72-4.418-10.025-4.418-15.916c0-4.418,0.85-8.497,2.549-12.235
			c1.7-3.776,4.042-7.063,7.023-9.857c3.021-2.87,6.421-5.041,10.198-6.514c3.89-1.51,7.91-2.267,12.064-2.267
			c4.154,0,8.157,0.757,12.008,2.267c3.815,1.473,7.231,3.625,10.253,6.457C192.792,1169.117,195.134,1172.422,196.832,1176.274z
			 M167.546,1174.008c-2.531,0-4.91,0.643-7.137,1.926c-1.36,0.83-2.682,2.002-3.967,3.512h22.207
			c-1.286-1.51-2.605-2.682-3.965-3.512C172.455,1174.65,170.077,1174.008,167.546,1174.008z"/>
		<path fill="#FFFFFF" d="M246.849,1177.406c-1.624-1.359-3.397-2.379-5.324-3.059c-2.002-0.68-4.116-1.02-6.345-1.02
			c-4.155,0-7.666,1.34-10.536,4.021c-2.908,2.682-4.362,6.005-4.362,9.972c0,3.096,0.623,5.871,1.87,8.326
			c1.209,2.454,3.001,4.399,5.381,5.834c2.304,1.474,4.966,2.208,7.988,2.208c4.455,0,8.27-1.415,11.442-4.247l9.913,12.575
			c-1.435,1.512-3.436,2.852-6.004,4.021c-2.605,1.171-5.288,2.039-8.044,2.605c-2.756,0.566-5.305,0.85-7.647,0.85
			c-6.572,0-12.368-1.379-17.39-4.135c-5.023-2.795-8.875-6.458-11.555-10.989c-2.683-4.606-4.022-9.535-4.022-14.784
			c0-4.796,0.812-9.139,2.436-13.029c1.662-3.965,3.946-7.363,6.855-10.196c2.868-2.756,6.361-4.928,10.479-6.514
			c4.078-1.549,8.476-2.322,13.198-2.322c3.851,0,7.609,0.604,11.273,1.812c3.7,1.247,6.966,3.003,9.801,5.269L246.849,1177.406z"/>
		<path fill="#FFFFFF" d="M277.836,1137.472v25.83c1.735-1.774,3.888-3.172,6.457-4.192c2.606-1.02,5.248-1.529,7.93-1.529
			c14.538,0,21.81,8.517,21.81,25.547v34.781l-18.127,0.057v-33.591c0-3.474-0.794-6.08-2.381-7.817
			c-1.585-1.736-3.814-2.605-6.684-2.605c-2.794,0-4.983,0.869-6.569,2.605c-1.625,1.737-2.436,4.344-2.436,7.817v33.534
			l-18.127,0.112v-80.492L277.836,1137.472z"/>
		<path fill="#FFFFFF" d="M365.295,1216.209c-1.209,0.53-2.096,0.889-2.662,1.077c-4.003,1.548-8.195,2.322-12.576,2.322
			c-5.778,0-11.235-1.341-16.369-4.022c-5.137-2.719-9.216-6.419-12.236-11.103c-3.059-4.758-4.589-10.063-4.589-15.917
			c0-4.419,0.887-8.535,2.662-12.35c1.776-3.776,4.211-7.061,7.308-9.856c3.06-2.794,6.608-4.928,10.648-6.401
			c4.041-1.547,8.233-2.322,12.576-2.322c4.306,0,8.498,0.757,12.576,2.267c4.078,1.51,7.628,3.663,10.648,6.457
			c3.172,2.87,5.627,6.156,7.364,9.856c1.776,3.814,2.664,7.931,2.664,12.35l-0.059,29.512l-17.956-0.17V1216.209z
			 M337.027,1181.259c-1.396,2.229-2.094,4.664-2.094,7.308c0,4.002,1.509,7.46,4.533,10.366c2.982,2.871,6.513,4.306,10.591,4.306
			c4.116,0,7.666-1.435,10.649-4.306c3.021-2.906,4.533-6.364,4.533-10.366c0-2.644-0.701-5.079-2.097-7.308
			c-1.397-2.229-3.266-4.003-5.606-5.325c-2.304-1.283-4.798-1.926-7.479-1.926c-2.607,0-5.08,0.643-7.42,1.926
			C340.295,1177.256,338.424,1179.03,337.027,1181.259z"/>
		<path fill="#FFFFFF" d="M411.177,1174.008c-4.607,0.189-6.911,3.398-6.911,9.631v34.27H386.14v-34.27
			c0-16.504,8.346-25.171,25.038-26.002h1.02c16.691,0.831,25.036,9.498,25.036,26.002v34.27h-18.124v-34.27
			c0-6.232-2.305-9.441-6.912-9.631H411.177z"/>
		<path fill="#FFFFFF" d="M457.625,1148.348c-0.831,1.398-1.963,2.53-3.398,3.398c-1.435,0.869-3.022,1.303-4.758,1.303
			c-1.737,0-3.305-0.414-4.702-1.246c-1.435-0.868-2.567-2.021-3.398-3.455c-0.87-1.511-1.303-3.116-1.303-4.815
			c0-1.736,0.416-3.321,1.246-4.758c0.907-1.474,2.058-2.624,3.455-3.455s2.965-1.246,4.702-1.246c1.736,0,3.323,0.415,4.758,1.246
			c1.397,0.831,2.529,1.981,3.398,3.455c0.831,1.437,1.248,3.021,1.248,4.758C458.873,1145.345,458.456,1146.951,457.625,1148.348z
			 M458.816,1159.959v58.062h-18.07v-58.005L458.816,1159.959z"/>
		<path fill="#FFFFFF" d="M506.341,1177.406c-1.622-1.359-3.398-2.379-5.324-3.059c-2.001-0.68-4.116-1.02-6.344-1.02
			c-4.155,0-7.666,1.34-10.535,4.021c-2.908,2.682-4.362,6.005-4.362,9.972c0,3.096,0.623,5.871,1.868,8.326
			c1.21,2.454,3.003,4.399,5.383,5.834c2.304,1.474,4.964,2.208,7.987,2.208c4.455,0,8.27-1.415,11.442-4.247l9.911,12.575
			c-1.435,1.512-3.436,2.852-6.003,4.021c-2.606,1.171-5.287,2.039-8.045,2.605c-2.757,0.566-5.305,0.85-7.646,0.85
			c-6.571,0-12.368-1.379-17.392-4.135c-5.021-2.795-8.874-6.458-11.555-10.989c-2.683-4.606-4.021-9.535-4.021-14.784
			c0-4.796,0.811-9.139,2.435-13.029c1.66-3.965,3.945-7.363,6.854-10.196c2.868-2.756,6.361-4.928,10.479-6.514
			c4.079-1.549,8.478-2.322,13.199-2.322c3.852,0,7.608,0.604,11.271,1.812c3.7,1.247,6.968,3.003,9.801,5.269L506.341,1177.406z"/>
	</g>
	<polygon fill="#FFFFFF" points="285.461,779.209 199.722,717.32 199.722,797.418 199.722,859.223 137.918,859.223 137.918,919.277 
		199.722,919.277 199.722,974.668 137.918,974.668 137.918,1034.141 199.722,1034.141 199.722,1095.943 248.699,1095.943 
		248.699,1034.141 324.496,1034.141 324.496,974.668 248.699,974.668 248.699,919.277 324.496,919.277 324.496,859.223 
		248.711,859.223 248.81,804.232 285.461,834.842 324.496,803.32 324.496,859.223 374.64,859.223 374.64,797.418 374.64,717.32 	"/>
	<polygon fill="#FFFFFF" stroke="#000000" stroke-miterlimit="10" points="436.443,919.277 436.443,859.223 374.64,859.223 
		324.496,859.223 324.496,919.277 324.496,974.668 324.496,1034.141 324.496,1095.943 374.64,1095.943 374.64,1034.141 
		436.443,1034.141 436.443,974.668 374.64,974.668 374.64,919.277 	"/>
	<g>
		<path d="M1125.583,1573.144v108.771l-28.44-0.076v-50.679l-22.542,21.558l-20.951-20.725l-0.076,49.922h-27.986v-108.771
			l49.014,41.905L1125.583,1573.144z"/>
		<path d="M1210.979,1626.242c2.269,5.096,3.404,10.542,3.404,16.338v0.683c0,0.253-0.027,0.528-0.076,0.831l-0.15,1.287h-9.381
			v0.15h-52.04c0.605,4.236,2.447,7.894,5.522,10.967c3.884,3.834,8.421,5.75,13.614,5.75c5.244,0,9.784-1.916,13.616-5.75
			l0.15-0.15l0.228-0.302l0.228-0.228l0.15-0.227l13.011,18.607c-3.732,3.025-7.516,5.321-11.348,6.883
			c-5.143,2.016-10.487,3.026-16.035,3.026c-7.514,0-14.498-1.79-20.951-5.372c-6.605-3.63-11.825-8.596-15.657-14.9
			c-3.934-6.303-5.9-13.387-5.9-21.256c0-5.898,1.134-11.345,3.404-16.338c2.27-5.041,5.396-9.429,9.379-13.161
			c4.033-3.832,8.573-6.731,13.616-8.698c5.193-2.016,10.563-3.025,16.109-3.025c5.548,0,10.893,1.01,16.035,3.025
			c5.094,1.967,9.656,4.841,13.692,8.623C1205.583,1616.688,1208.71,1621.1,1210.979,1626.242z M1171.873,1623.217
			c-3.378,0-6.556,0.858-9.529,2.572c-1.816,1.109-3.581,2.674-5.296,4.689h29.652c-1.717-2.016-3.479-3.58-5.296-4.689
			C1178.427,1624.075,1175.252,1623.217,1171.873,1623.217z"/>
		<path d="M1277.767,1627.755c-2.167-1.815-4.537-3.177-7.109-4.085c-2.673-0.906-5.495-1.36-8.472-1.36
			c-5.549,0-10.236,1.79-14.068,5.37c-3.883,3.582-5.824,8.019-5.824,13.314c0,4.134,0.832,7.84,2.496,11.117
			c1.614,3.278,4.008,5.877,7.186,7.792c3.076,1.968,6.63,2.948,10.666,2.948c5.949,0,11.043-1.891,15.279-5.672l13.235,16.793
			c-1.916,2.018-4.588,3.809-8.017,5.369c-3.479,1.563-7.061,2.723-10.742,3.479c-3.681,0.757-7.084,1.134-10.211,1.134
			c-8.775,0-16.516-1.842-23.222-5.52c-6.706-3.732-11.851-8.625-15.43-14.674c-3.581-6.152-5.37-12.732-5.37-19.742
			c0-6.405,1.084-12.204,3.252-17.398c2.218-5.295,5.269-9.833,9.153-13.615c3.83-3.68,8.494-6.58,13.992-8.699
			c5.446-2.067,11.319-3.101,17.624-3.101c5.143,0,10.16,0.808,15.052,2.421c4.941,1.664,9.304,4.008,13.088,7.033
			L1277.767,1627.755z"/>
		<path d="M1319.144,1574.43v34.491c2.317-2.369,5.191-4.235,8.622-5.597c3.479-1.361,7.008-2.043,10.589-2.043
			c19.413,0,29.123,11.372,29.123,34.113v46.443l-24.205,0.076v-44.854c0-4.64-1.061-8.12-3.179-10.439
			c-2.117-2.318-5.094-3.48-8.926-3.48c-3.731,0-6.654,1.162-8.772,3.48c-2.169,2.319-3.252,5.8-3.252,10.439v44.777l-24.205,0.15
			v-107.483L1319.144,1574.43z"/>
		<path d="M1435.929,1679.569c-1.614,0.708-2.798,1.185-3.554,1.438c-5.347,2.066-10.943,3.101-16.794,3.101
			c-7.715,0-15.001-1.79-21.857-5.372c-6.859-3.63-12.306-8.57-16.339-14.824c-4.085-6.354-6.127-13.438-6.127-21.255
			c0-5.901,1.184-11.396,3.554-16.49c2.371-5.042,5.623-9.429,9.759-13.161c4.085-3.73,8.824-6.58,14.219-8.548
			c5.396-2.067,10.993-3.101,16.792-3.101c5.75,0,11.348,1.01,16.794,3.025c5.444,2.017,10.186,4.893,14.219,8.623
			c4.236,3.832,7.514,8.22,9.833,13.161c2.371,5.095,3.557,10.589,3.557,16.49l-0.077,39.407l-23.978-0.227V1679.569z
			 M1398.184,1632.898c-1.864,2.977-2.797,6.229-2.797,9.759c0,5.345,2.016,9.96,6.052,13.841c3.982,3.834,8.698,5.75,14.143,5.75
			c5.497,0,10.236-1.916,14.222-5.75c4.033-3.881,6.052-8.496,6.052-13.841c0-3.53-0.935-6.782-2.8-9.759
			c-1.865-2.975-4.361-5.344-7.487-7.109c-3.076-1.714-6.405-2.572-9.986-2.572c-3.479,0-6.782,0.858-9.907,2.572
			C1402.547,1627.555,1400.049,1629.924,1398.184,1632.898z"/>
		<path d="M1497.197,1623.217c-6.151,0.253-9.228,4.538-9.228,12.859v45.762h-24.205v-45.762c0-22.037,11.144-33.609,33.433-34.719
			h1.361c22.289,1.109,33.433,12.682,33.433,34.719v45.762h-24.202v-45.762c0-8.321-3.078-12.606-9.23-12.859H1497.197z"/>
		<path d="M1559.221,1588.953c-1.109,1.865-2.621,3.378-4.537,4.538c-1.916,1.159-4.036,1.739-6.354,1.739
			c-2.32,0-4.414-0.555-6.279-1.664c-1.916-1.16-3.429-2.697-4.537-4.613c-1.162-2.018-1.74-4.16-1.74-6.43
			c0-2.319,0.555-4.438,1.663-6.354c1.211-1.968,2.749-3.506,4.614-4.614s3.959-1.665,6.279-1.665c2.317,0,4.438,0.557,6.354,1.665
			c1.864,1.108,3.377,2.646,4.537,4.614c1.108,1.916,1.665,4.034,1.665,6.354C1560.886,1584.943,1560.33,1587.088,1559.221,1588.953
			z M1560.81,1604.458v77.53h-24.129v-77.455L1560.81,1604.458z"/>
		<path d="M1624.272,1627.755c-2.167-1.815-4.537-3.177-7.109-4.085c-2.673-0.906-5.496-1.36-8.472-1.36
			c-5.549,0-10.236,1.79-14.068,5.37c-3.883,3.582-5.824,8.019-5.824,13.314c0,4.134,0.833,7.84,2.495,11.117
			c1.615,3.278,4.009,5.877,7.187,7.792c3.076,1.968,6.63,2.948,10.666,2.948c5.949,0,11.043-1.891,15.279-5.672l13.235,16.793
			c-1.916,2.018-4.588,3.809-8.017,5.369c-3.479,1.563-7.061,2.723-10.742,3.479c-3.681,0.757-7.084,1.134-10.211,1.134
			c-8.775,0-16.516-1.842-23.222-5.52c-6.706-3.732-11.851-8.625-15.43-14.674c-3.582-6.152-5.37-12.732-5.37-19.742
			c0-6.405,1.083-12.204,3.252-17.398c2.218-5.295,5.269-9.833,9.153-13.615c3.83-3.68,8.494-6.58,13.992-8.699
			c5.446-2.067,11.319-3.101,17.624-3.101c5.143,0,10.16,0.808,15.052,2.421c4.941,1.664,9.305,4.008,13.088,7.033
			L1624.272,1627.755z"/>
	</g>
	<polygon points="824.55,1459.209 738.811,1397.32 738.811,1477.418 738.811,1539.223 677.007,1539.223 677.007,1599.277 
		738.811,1599.277 738.811,1654.668 677.007,1654.668 677.007,1714.141 738.811,1714.141 738.811,1775.943 787.789,1775.943 
		787.789,1714.141 863.585,1714.141 863.585,1654.668 787.789,1654.668 787.789,1599.277 863.585,1599.277 863.585,1539.223 
		787.8,1539.223 787.899,1484.232 824.55,1514.842 863.585,1483.32 863.585,1539.223 913.729,1539.223 913.729,1477.418 
		913.729,1397.32 	"/>
	<polygon stroke="#FFFFFF" stroke-miterlimit="10" points="975.533,1599.277 975.533,1539.223 913.729,1539.223 863.585,1539.223 
		863.585,1599.277 863.585,1654.668 863.585,1714.141 863.585,1775.943 913.729,1775.943 913.729,1714.141 975.533,1714.141 
		975.533,1654.668 913.729,1654.668 913.729,1599.277 	"/>
	<g>
		<path d="M132.879,1816.509v81.456l-21.298-0.057v-37.953l-16.882,16.146l-15.69-15.521l-0.057,37.386H57.994v-81.456
			l36.706,31.381L132.879,1816.509z"/>
		<path d="M196.832,1856.274c1.699,3.815,2.549,7.894,2.549,12.235v0.51c0,0.189-0.021,0.396-0.057,0.622l-0.113,0.964h-7.025v0.113
			h-38.972c0.454,3.172,1.833,5.911,4.135,8.214c2.909,2.871,6.307,4.306,10.196,4.306c3.927,0,7.326-1.435,10.196-4.306
			l0.112-0.113l0.171-0.227l0.169-0.17l0.113-0.171l9.744,13.936c-2.795,2.266-5.628,3.985-8.498,5.154
			c-3.851,1.509-7.854,2.267-12.008,2.267c-5.627,0-10.857-1.341-15.69-4.022c-4.946-2.719-8.856-6.438-11.726-11.16
			c-2.946-4.72-4.418-10.025-4.418-15.916c0-4.418,0.85-8.497,2.549-12.235c1.7-3.776,4.042-7.063,7.023-9.857
			c3.021-2.87,6.421-5.041,10.198-6.514c3.89-1.51,7.91-2.267,12.064-2.267c4.154,0,8.157,0.757,12.008,2.267
			c3.815,1.473,7.231,3.625,10.253,6.457C192.792,1849.117,195.134,1852.422,196.832,1856.274z M167.546,1854.008
			c-2.531,0-4.91,0.643-7.137,1.926c-1.36,0.83-2.682,2.002-3.967,3.512h22.207c-1.286-1.51-2.605-2.682-3.965-3.512
			C172.455,1854.65,170.077,1854.008,167.546,1854.008z"/>
		<path d="M246.849,1857.406c-1.624-1.359-3.397-2.379-5.324-3.059c-2.002-0.68-4.116-1.02-6.345-1.02
			c-4.155,0-7.666,1.34-10.536,4.021c-2.908,2.682-4.362,6.005-4.362,9.972c0,3.096,0.623,5.871,1.87,8.326
			c1.209,2.454,3.001,4.399,5.381,5.834c2.304,1.474,4.966,2.208,7.988,2.208c4.455,0,8.27-1.415,11.442-4.247l9.913,12.575
			c-1.435,1.512-3.436,2.852-6.004,4.021c-2.605,1.171-5.288,2.039-8.044,2.605c-2.756,0.566-5.305,0.85-7.647,0.85
			c-6.572,0-12.368-1.379-17.39-4.135c-5.023-2.795-8.875-6.458-11.555-10.989c-2.683-4.606-4.022-9.535-4.022-14.784
			c0-4.796,0.812-9.139,2.436-13.029c1.662-3.965,3.946-7.363,6.855-10.196c2.868-2.756,6.361-4.928,10.479-6.514
			c4.078-1.549,8.476-2.322,13.198-2.322c3.851,0,7.609,0.604,11.273,1.812c3.7,1.247,6.966,3.003,9.801,5.269L246.849,1857.406z"/>
		<path d="M277.836,1817.472v25.83c1.735-1.774,3.888-3.172,6.457-4.192c2.606-1.02,5.248-1.529,7.93-1.529
			c14.538,0,21.81,8.517,21.81,25.547v34.781l-18.127,0.057v-33.591c0-3.474-0.794-6.08-2.381-7.817
			c-1.585-1.736-3.814-2.605-6.684-2.605c-2.794,0-4.983,0.869-6.569,2.605c-1.625,1.737-2.436,4.344-2.436,7.817v33.534
			l-18.127,0.112v-80.492L277.836,1817.472z"/>
		<path d="M365.295,1896.209c-1.209,0.53-2.096,0.889-2.662,1.077c-4.003,1.548-8.195,2.322-12.576,2.322
			c-5.778,0-11.235-1.341-16.369-4.022c-5.137-2.719-9.216-6.419-12.236-11.103c-3.059-4.758-4.589-10.063-4.589-15.917
			c0-4.419,0.887-8.535,2.662-12.35c1.776-3.776,4.211-7.061,7.308-9.856c3.06-2.794,6.608-4.928,10.648-6.401
			c4.041-1.547,8.233-2.322,12.576-2.322c4.306,0,8.498,0.757,12.576,2.267c4.078,1.51,7.628,3.663,10.648,6.457
			c3.172,2.87,5.627,6.156,7.364,9.856c1.776,3.814,2.664,7.931,2.664,12.35l-0.059,29.512l-17.956-0.17V1896.209z
			 M337.027,1861.259c-1.396,2.229-2.094,4.664-2.094,7.308c0,4.002,1.509,7.46,4.533,10.366c2.982,2.871,6.513,4.306,10.591,4.306
			c4.116,0,7.666-1.435,10.649-4.306c3.021-2.906,4.533-6.364,4.533-10.366c0-2.644-0.701-5.079-2.097-7.308
			c-1.397-2.229-3.266-4.003-5.606-5.325c-2.304-1.283-4.798-1.926-7.479-1.926c-2.607,0-5.08,0.643-7.42,1.926
			C340.295,1857.256,338.424,1859.03,337.027,1861.259z"/>
		<path d="M411.177,1854.008c-4.607,0.189-6.911,3.398-6.911,9.631v34.27H386.14v-34.27c0-16.504,8.346-25.171,25.038-26.002h1.02
			c16.691,0.831,25.036,9.498,25.036,26.002v34.27h-18.124v-34.27c0-6.232-2.305-9.441-6.912-9.631H411.177z"/>
		<path d="M457.625,1828.348c-0.831,1.398-1.963,2.53-3.398,3.398c-1.435,0.869-3.022,1.303-4.758,1.303
			c-1.737,0-3.305-0.414-4.702-1.246c-1.435-0.868-2.567-2.021-3.398-3.455c-0.87-1.511-1.303-3.116-1.303-4.815
			c0-1.736,0.416-3.321,1.246-4.758c0.907-1.474,2.058-2.624,3.455-3.455s2.965-1.246,4.702-1.246c1.736,0,3.323,0.415,4.758,1.246
			c1.397,0.831,2.529,1.981,3.398,3.455c0.831,1.437,1.248,3.021,1.248,4.758C458.873,1825.345,458.456,1826.951,457.625,1828.348z
			 M458.816,1839.959v58.062h-18.07v-58.005L458.816,1839.959z"/>
		<path d="M506.341,1857.406c-1.622-1.359-3.398-2.379-5.324-3.059c-2.001-0.68-4.116-1.02-6.344-1.02
			c-4.155,0-7.666,1.34-10.535,4.021c-2.908,2.682-4.362,6.005-4.362,9.972c0,3.096,0.623,5.871,1.868,8.326
			c1.21,2.454,3.003,4.399,5.383,5.834c2.304,1.474,4.964,2.208,7.987,2.208c4.455,0,8.27-1.415,11.442-4.247l9.911,12.575
			c-1.435,1.512-3.436,2.852-6.003,4.021c-2.606,1.171-5.287,2.039-8.045,2.605c-2.757,0.566-5.305,0.85-7.646,0.85
			c-6.571,0-12.368-1.379-17.392-4.135c-5.021-2.795-8.874-6.458-11.555-10.989c-2.683-4.606-4.021-9.535-4.021-14.784
			c0-4.796,0.811-9.139,2.435-13.029c1.66-3.965,3.945-7.363,6.854-10.196c2.868-2.756,6.361-4.928,10.479-6.514
			c4.079-1.549,8.478-2.322,13.199-2.322c3.852,0,7.608,0.604,11.271,1.812c3.7,1.247,6.968,3.003,9.801,5.269L506.341,1857.406z"/>
	</g>
	<polygon points="285.461,1459.209 199.722,1397.32 199.722,1477.418 199.722,1539.223 137.918,1539.223 137.918,1599.277 
		199.722,1599.277 199.722,1654.668 137.918,1654.668 137.918,1714.141 199.722,1714.141 199.722,1775.943 248.699,1775.943 
		248.699,1714.141 324.496,1714.141 324.496,1654.668 248.699,1654.668 248.699,1599.277 324.496,1599.277 324.496,1539.223 
		248.711,1539.223 248.81,1484.232 285.461,1514.842 324.496,1483.32 324.496,1539.223 374.64,1539.223 374.64,1477.418 
		374.64,1397.32 	"/>
	<polygon stroke="#FFFFFF" stroke-miterlimit="10" points="436.443,1599.277 436.443,1539.223 374.64,1539.223 324.496,1539.223 
		324.496,1599.277 324.496,1654.668 324.496,1714.141 324.496,1775.943 374.64,1775.943 374.64,1714.141 436.443,1714.141 
		436.443,1654.668 374.64,1654.668 374.64,1599.277 	"/>
</g>
<g id="Layer_1">
</g>
</svg>
