<?xml version="1.0" encoding="utf-8"?>
<!-- Generator: Adobe Illustrator 16.0.0, SVG Export Plug-In . SVG Version: 6.00 Build 0)  -->
<!DOCTYPE svg PUBLIC "-//W3C//DTD SVG 1.1//EN" "http://www.w3.org/Graphics/SVG/1.1/DTD/svg11.dtd">
<svg version="1.1" xmlns="http://www.w3.org/2000/svg" xmlns:xlink="http://www.w3.org/1999/xlink" x="0px" y="0px" width="1497px"
	 height="1793px" viewBox="0 0 1497 1793" enable-background="new 0 0 1497 1793" xml:space="preserve">
<g id="_x32_1">
	<rect y="599" width="1497" height="580"/>
	<g>
		<rect x="272" y="264" fill="none" width="52" height="52"/>
		<polygon fill="#009245" points="296.387,123.564 216,51.339 216,149.813 216,208 158,208 158,264 216,264 216,316 158,316 
			158,372 216,372 216,430 272,430 272,372 324,372 324,316 272,316 272,264 324,264 324,208 272.331,208 272,208 272,163.139 
			296.387,188.489 324,160.736 324,208 333.331,208 380,208 380,149.813 380,51.339 		"/>
		<polygon opacity="0.8" fill="#009245" points="438,264 438,208 380.331,208 333.331,208 324,208 324,263.813 324,315.813 
			324,371.813 324,430 380,430 380,372 438,372 438,316 380,316 380,264 		"/>
		<g>
			<path fill="#009245" d="M124.841,452.228v91.586l-23.947-0.064v-42.672l-18.979,18.152l-17.642-17.451l-0.064,42.035H40.644
				v-91.586l41.271,35.284L124.841,452.228z"/>
			<path fill="#009245" d="M196.747,496.938c1.91,4.29,2.866,8.876,2.866,13.757v0.574c0,0.213-0.022,0.445-0.064,0.699
				l-0.127,1.084h-7.897v0.127h-43.818c0.51,3.566,2.06,6.646,4.649,9.234c3.27,3.229,7.091,4.842,11.464,4.842
				c4.416,0,8.237-1.613,11.464-4.842l0.128-0.127l0.191-0.254l0.19-0.191l0.128-0.191l10.954,15.668
				c-3.143,2.547-6.327,4.48-9.554,5.795c-4.33,1.697-8.831,2.549-13.502,2.549c-6.327,0-12.207-1.508-17.642-4.523
				c-5.563-3.057-9.957-7.238-13.184-12.547c-3.312-5.307-4.968-11.271-4.968-17.896c0-4.967,0.955-9.553,2.866-13.757
				c1.91-4.245,4.543-7.939,7.897-11.082c3.396-3.227,7.218-5.668,11.464-7.324c4.373-1.697,8.895-2.548,13.565-2.548
				s9.172,0.851,13.502,2.548c4.288,1.656,8.131,4.076,11.528,7.261C192.203,488.892,194.835,492.606,196.747,496.938z
				 M163.819,494.39c-2.845,0-5.52,0.723-8.024,2.166c-1.528,0.934-3.016,2.251-4.458,3.948h24.966
				c-1.444-1.697-2.93-3.015-4.458-3.948C169.338,495.112,166.664,494.39,163.819,494.39z"/>
			<path fill="#009245" d="M252.983,498.211c-1.825-1.528-3.821-2.675-5.986-3.439c-2.251-0.764-4.628-1.146-7.133-1.146
				c-4.672,0-8.62,1.507-11.847,4.521c-3.27,3.016-4.904,6.752-4.904,11.211c0,3.48,0.701,6.602,2.103,9.361
				c1.358,2.76,3.375,4.947,6.05,6.561c2.59,1.656,5.583,2.482,8.98,2.482c5.01,0,9.299-1.592,12.865-4.775l11.146,14.139
				c-1.614,1.699-3.864,3.207-6.751,4.521c-2.93,1.316-5.945,2.293-9.044,2.93c-3.1,0.637-5.966,0.955-8.598,0.955
				c-7.389,0-13.906-1.551-19.553-4.648c-5.647-3.143-9.979-7.262-12.993-12.355c-3.015-5.18-4.521-10.721-4.521-16.623
				c0-5.393,0.912-10.275,2.738-14.649c1.868-4.458,4.437-8.279,7.707-11.464c3.226-3.099,7.153-5.541,11.782-7.324
				c4.586-1.741,9.531-2.611,14.84-2.611c4.33,0,8.555,0.68,12.674,2.038c4.16,1.401,7.834,3.375,11.019,5.923L252.983,498.211z"/>
			<path fill="#009245" d="M287.822,453.311v29.042c1.952-1.995,4.372-3.566,7.26-4.713c2.93-1.146,5.902-1.72,8.918-1.72
				c16.346,0,24.52,9.575,24.52,28.724v39.105l-20.381,0.064v-37.768c0-3.906-0.891-6.837-2.674-8.79
				c-1.783-1.952-4.289-2.93-7.516-2.93c-3.143,0-5.605,0.978-7.389,2.93c-1.826,1.953-2.738,4.884-2.738,8.79v37.703l-20.381,0.127
				v-90.502L287.822,453.311z"/>
			<path fill="#009245" d="M386.158,541.839c-1.359,0.596-2.357,0.998-2.994,1.211c-4.5,1.74-9.213,2.611-14.139,2.611
				c-6.496,0-12.633-1.508-18.406-4.523c-5.775-3.057-10.359-7.217-13.756-12.482c-3.439-5.35-5.16-11.314-5.16-17.896
				c0-4.969,0.998-9.596,2.994-13.885c1.994-4.246,4.734-7.939,8.215-11.082c3.439-3.142,7.43-5.541,11.975-7.197
				c4.543-1.74,9.256-2.611,14.139-2.611c4.84,0,9.553,0.851,14.139,2.548c4.586,1.698,8.576,4.119,11.975,7.261
				c3.566,3.227,6.327,6.921,8.28,11.082c1.994,4.289,2.992,8.916,2.992,13.885l-0.063,33.182l-20.19-0.191V541.839z
				 M354.376,502.542c-1.572,2.506-2.357,5.244-2.357,8.217c0,4.5,1.699,8.387,5.096,11.654c3.354,3.229,7.324,4.842,11.91,4.842
				c4.627,0,8.619-1.613,11.973-4.842c3.396-3.268,5.096-7.154,5.096-11.654c0-2.973-0.785-5.711-2.355-8.217
				c-1.572-2.505-3.674-4.5-6.307-5.986c-2.59-1.443-5.393-2.166-8.406-2.166c-2.93,0-5.711,0.723-8.344,2.166
				C358.048,498.042,355.947,500.037,354.376,502.542z"/>
			<path fill="#009245" d="M437.746,494.39c-5.182,0.213-7.77,3.821-7.77,10.828v38.531h-20.381v-38.531
				c0-18.556,9.383-28.3,28.15-29.234h1.146c18.766,0.935,28.15,10.679,28.15,29.234v38.531h-20.381v-38.531
				c0-7.007-2.59-10.615-7.77-10.828H437.746z"/>
			<path fill="#009245" d="M489.971,465.539c-0.934,1.571-2.209,2.845-3.822,3.821s-3.396,1.465-5.35,1.465
				s-3.715-0.467-5.285-1.401c-1.615-0.977-2.889-2.271-3.822-3.885c-0.977-1.698-1.465-3.503-1.465-5.414
				c0-1.952,0.467-3.735,1.402-5.35c1.018-1.656,2.313-2.951,3.885-3.885c1.57-0.934,3.332-1.401,5.285-1.401
				s3.736,0.468,5.35,1.401c1.57,0.934,2.846,2.229,3.822,3.885c0.934,1.614,1.4,3.397,1.4,5.35
				C491.371,462.163,490.904,463.969,489.971,465.539z M491.309,478.595v65.281h-20.316v-65.218L491.309,478.595z"/>
			<path fill="#009245" d="M544.744,498.211c-1.826-1.528-3.822-2.675-5.986-3.439c-2.252-0.764-4.629-1.146-7.133-1.146
				c-4.672,0-8.621,1.507-11.848,4.521c-3.27,3.016-4.904,6.752-4.904,11.211c0,3.48,0.701,6.602,2.104,9.361
				c1.357,2.76,3.375,4.947,6.049,6.561c2.59,1.656,5.584,2.482,8.98,2.482c5.01,0,9.299-1.592,12.865-4.775l11.146,14.139
				c-1.615,1.699-3.865,3.207-6.752,4.521c-2.93,1.316-5.945,2.293-9.043,2.93c-3.1,0.637-5.967,0.955-8.598,0.955
				c-7.389,0-13.906-1.551-19.553-4.648c-5.648-3.143-9.979-7.262-12.994-12.355c-3.014-5.18-4.521-10.721-4.521-16.623
				c0-5.393,0.912-10.275,2.738-14.649c1.869-4.458,4.438-8.279,7.707-11.464c3.227-3.099,7.154-5.541,11.783-7.324
				c4.586-1.741,9.531-2.611,14.84-2.611c4.33,0,8.555,0.68,12.674,2.038c4.16,1.401,7.834,3.375,11.018,5.923L544.744,498.211z"/>
		</g>
		<rect x="737" y="322" fill="none" width="52" height="52"/>
		<polygon fill="#009245" points="761.387,181.488 681,109.263 681,207.737 681,266 623,266 623,322 681,322 681,374 623,374 
			623,430 681,430 681,488 737,488 737,430 789,430 789,374 737,374 737,322 789,322 789,266 737.33,266 737,266 737,221.063 
			761.387,246.413 789,218.66 789,266 798.33,266 845,266 845,207.737 845,109.263 		"/>
		<polygon opacity="0.8" fill="#009245" points="903,322 903,266 845.33,266 798.33,266 789,266 789,321.737 789,373.737 
			789,429.737 789,488 845,488 845,430 903,430 903,374 845,374 845,322 		"/>
		<g>
			<path fill="#009245" d="M1025.182,302.352v91.586l-23.947-0.064v-42.672l-18.98,18.152l-17.641-17.451l-0.064,42.035h-23.564
				v-91.586l41.27,35.284L1025.182,302.352z"/>
			<path fill="#009245" d="M1097.086,347.062c1.91,4.29,2.867,8.876,2.867,13.757v0.574c0,0.213-0.023,0.445-0.064,0.699
				l-0.127,1.084h-7.898v0.127h-43.818c0.51,3.566,2.061,6.646,4.65,9.234c3.27,3.229,7.09,4.842,11.463,4.842
				c4.416,0,8.238-1.613,11.465-4.842l0.127-0.127l0.191-0.254l0.191-0.191l0.127-0.191l10.955,15.668
				c-3.143,2.547-6.328,4.48-9.555,5.795c-4.33,1.697-8.83,2.549-13.502,2.549c-6.326,0-12.207-1.508-17.641-4.523
				c-5.563-3.057-9.957-7.238-13.184-12.547c-3.313-5.307-4.969-11.271-4.969-17.896c0-4.967,0.955-9.553,2.867-13.757
				c1.91-4.245,4.543-7.939,7.896-11.082c3.396-3.227,7.219-5.668,11.465-7.324c4.373-1.697,8.895-2.548,13.564-2.548
				c4.672,0,9.172,0.851,13.502,2.548c4.289,1.656,8.131,4.076,11.529,7.261C1092.543,339.016,1095.176,342.73,1097.086,347.062z
				 M1064.158,344.514c-2.844,0-5.52,0.723-8.023,2.166c-1.529,0.934-3.016,2.251-4.459,3.948h24.967
				c-1.445-1.697-2.93-3.015-4.459-3.948C1069.678,345.236,1067.004,344.514,1064.158,344.514z"/>
			<path fill="#009245" d="M1153.322,348.335c-1.824-1.528-3.82-2.675-5.986-3.439c-2.25-0.764-4.627-1.146-7.133-1.146
				c-4.672,0-8.619,1.507-11.846,4.521c-3.27,3.016-4.904,6.752-4.904,11.211c0,3.48,0.701,6.602,2.102,9.361
				c1.359,2.76,3.375,4.947,6.051,6.561c2.59,1.656,5.582,2.482,8.98,2.482c5.01,0,9.299-1.592,12.865-4.775l11.145,14.139
				c-1.613,1.699-3.863,3.207-6.75,4.521c-2.93,1.316-5.945,2.293-9.045,2.93s-5.965,0.955-8.598,0.955
				c-7.389,0-13.906-1.551-19.553-4.648c-5.646-3.143-9.979-7.262-12.992-12.355c-3.016-5.18-4.521-10.721-4.521-16.623
				c0-5.393,0.912-10.275,2.738-14.649c1.867-4.458,4.436-8.279,7.707-11.464c3.225-3.099,7.152-5.541,11.781-7.324
				c4.586-1.741,9.531-2.611,14.84-2.611c4.33,0,8.555,0.68,12.674,2.038c4.16,1.401,7.834,3.375,11.02,5.923L1153.322,348.335z"/>
			<path fill="#009245" d="M1188.162,303.435v29.042c1.951-1.995,4.371-3.566,7.26-4.713c2.93-1.146,5.9-1.72,8.916-1.72
				c16.346,0,24.521,9.575,24.521,28.724v39.105l-20.381,0.064V356.17c0-3.906-0.893-6.837-2.676-8.79
				c-1.783-1.952-4.289-2.93-7.516-2.93c-3.143,0-5.604,0.978-7.387,2.93c-1.826,1.953-2.738,4.884-2.738,8.79v37.703L1167.781,394
				v-90.502L1188.162,303.435z"/>
			<path fill="#009245" d="M1286.496,391.963c-1.359,0.596-2.355,0.998-2.992,1.211c-4.502,1.74-9.215,2.611-14.141,2.611
				c-6.496,0-12.631-1.508-18.404-4.523c-5.775-3.057-10.361-7.217-13.758-12.482c-3.439-5.35-5.158-11.314-5.158-17.896
				c0-4.969,0.996-9.596,2.992-13.885c1.996-4.246,4.734-7.939,8.217-11.082c3.439-3.142,7.43-5.541,11.973-7.197
				c4.543-1.74,9.256-2.611,14.139-2.611c4.842,0,9.555,0.851,14.141,2.548c4.584,1.698,8.576,4.119,11.973,7.261
				c3.566,3.227,6.326,6.921,8.279,11.082c1.996,4.289,2.994,8.916,2.994,13.885l-0.064,33.182l-20.189-0.191V391.963z
				 M1254.715,352.666c-1.57,2.506-2.355,5.244-2.355,8.217c0,4.5,1.697,8.387,5.096,11.654c3.354,3.229,7.324,4.842,11.908,4.842
				c4.629,0,8.619-1.613,11.975-4.842c3.396-3.268,5.096-7.154,5.096-11.654c0-2.973-0.787-5.711-2.357-8.217
				c-1.57-2.505-3.672-4.5-6.305-5.986c-2.59-1.443-5.393-2.166-8.408-2.166c-2.93,0-5.711,0.723-8.342,2.166
				C1258.389,348.166,1256.285,350.161,1254.715,352.666z"/>
			<path fill="#009245" d="M1338.084,344.514c-5.18,0.213-7.77,3.821-7.77,10.828v38.531h-20.381v-38.531
				c0-18.556,9.383-28.3,28.15-29.234h1.146c18.768,0.935,28.15,10.679,28.15,29.234v38.531h-20.379v-38.531
				c0-7.007-2.592-10.615-7.771-10.828H1338.084z"/>
			<path fill="#009245" d="M1390.309,315.663c-0.934,1.571-2.207,2.845-3.82,3.821s-3.398,1.465-5.35,1.465
				c-1.953,0-3.717-0.467-5.287-1.401c-1.613-0.977-2.887-2.271-3.82-3.885c-0.979-1.698-1.465-3.503-1.465-5.414
				c0-1.952,0.467-3.735,1.4-5.35c1.02-1.656,2.314-2.951,3.885-3.885s3.334-1.401,5.287-1.401c1.951,0,3.736,0.468,5.35,1.401
				c1.57,0.934,2.844,2.229,3.82,3.885c0.934,1.614,1.402,3.397,1.402,5.35C1391.711,312.287,1391.242,314.093,1390.309,315.663z
				 M1391.646,328.719V394h-20.316v-65.218L1391.646,328.719z"/>
			<path fill="#009245" d="M1445.082,348.335c-1.824-1.528-3.82-2.675-5.986-3.439c-2.25-0.764-4.627-1.146-7.133-1.146
				c-4.672,0-8.619,1.507-11.846,4.521c-3.27,3.016-4.904,6.752-4.904,11.211c0,3.48,0.701,6.602,2.102,9.361
				c1.359,2.76,3.375,4.947,6.051,6.561c2.59,1.656,5.582,2.482,8.98,2.482c5.01,0,9.299-1.592,12.865-4.775l11.145,14.139
				c-1.613,1.699-3.863,3.207-6.75,4.521c-2.93,1.316-5.945,2.293-9.045,2.93s-5.965,0.955-8.598,0.955
				c-7.389,0-13.906-1.551-19.553-4.648c-5.646-3.143-9.979-7.262-12.992-12.355c-3.016-5.18-4.521-10.721-4.521-16.623
				c0-5.393,0.912-10.275,2.738-14.649c1.867-4.458,4.436-8.279,7.707-11.464c3.225-3.099,7.152-5.541,11.781-7.324
				c4.586-1.741,9.531-2.611,14.84-2.611c4.33,0,8.555,0.68,12.674,2.038c4.16,1.401,7.834,3.375,11.02,5.923L1445.082,348.335z"/>
		</g>
	</g>
	<polygon fill="#FFFFFF" points="296.387,717.887 216,645.661 216,744.136 216,802 158,802 158,858 216,858 216,910 158,910 
		158,966 216,966 216,1024 272,1024 272,966 324,966 324,910 272,910 272,858 324,858 324,802 272.331,802 272,802 272,757.461 
		296.387,782.812 324,755.059 324,802 333.331,802 380,802 380,744.136 380,645.661 	"/>
	<polygon fill="#FFFFFF" points="438,858 438,802 380.331,802 333.331,802 324,802 324,858.136 324,910.136 324,966.136 324,1024 
		380,1024 380,966 438,966 438,910 380,910 380,858 	"/>
	<g>
		<path fill="#FFFFFF" d="M124.841,1046.55v91.586l-23.947-0.064v-42.672l-18.979,18.152l-17.642-17.451l-0.064,42.035H40.644
			v-91.586l41.271,35.284L124.841,1046.55z"/>
		<path fill="#FFFFFF" d="M196.747,1091.26c1.91,4.29,2.866,8.876,2.866,13.757v0.574c0,0.213-0.022,0.445-0.064,0.699l-0.127,1.084
			h-7.897v0.127h-43.818c0.51,3.566,2.06,6.646,4.649,9.234c3.27,3.229,7.091,4.842,11.464,4.842c4.416,0,8.237-1.613,11.464-4.842
			l0.128-0.127l0.191-0.254l0.19-0.191l0.128-0.191l10.954,15.668c-3.143,2.547-6.327,4.48-9.554,5.795
			c-4.33,1.697-8.831,2.549-13.502,2.549c-6.327,0-12.207-1.508-17.642-4.523c-5.563-3.057-9.957-7.238-13.184-12.547
			c-3.312-5.307-4.968-11.271-4.968-17.896c0-4.967,0.955-9.553,2.866-13.757c1.91-4.245,4.543-7.939,7.897-11.082
			c3.396-3.227,7.218-5.668,11.464-7.324c4.373-1.697,8.895-2.548,13.565-2.548s9.172,0.851,13.502,2.548
			c4.288,1.656,8.131,4.076,11.528,7.261C192.203,1083.214,194.835,1086.929,196.747,1091.26z M163.819,1088.712
			c-2.845,0-5.52,0.723-8.024,2.166c-1.528,0.934-3.016,2.251-4.458,3.948h24.966c-1.444-1.697-2.93-3.015-4.458-3.948
			C169.338,1089.435,166.664,1088.712,163.819,1088.712z"/>
		<path fill="#FFFFFF" d="M252.983,1092.533c-1.825-1.528-3.821-2.675-5.986-3.439c-2.251-0.764-4.628-1.146-7.133-1.146
			c-4.672,0-8.62,1.507-11.847,4.521c-3.27,3.016-4.904,6.752-4.904,11.211c0,3.48,0.701,6.602,2.103,9.361
			c1.358,2.76,3.375,4.947,6.05,6.561c2.59,1.656,5.583,2.482,8.98,2.482c5.01,0,9.299-1.592,12.865-4.775l11.146,14.139
			c-1.614,1.699-3.864,3.207-6.751,4.521c-2.93,1.316-5.945,2.293-9.044,2.93c-3.1,0.637-5.966,0.955-8.598,0.955
			c-7.389,0-13.906-1.551-19.553-4.648c-5.647-3.143-9.979-7.262-12.993-12.355c-3.015-5.18-4.521-10.721-4.521-16.623
			c0-5.393,0.912-10.275,2.738-14.649c1.868-4.458,4.437-8.279,7.707-11.464c3.226-3.099,7.153-5.541,11.782-7.324
			c4.586-1.741,9.531-2.611,14.84-2.611c4.33,0,8.555,0.68,12.674,2.038c4.16,1.401,7.834,3.375,11.019,5.923L252.983,1092.533z"/>
		<path fill="#FFFFFF" d="M287.822,1047.633v29.042c1.952-1.995,4.372-3.566,7.26-4.713c2.93-1.146,5.902-1.72,8.918-1.72
			c16.346,0,24.52,9.575,24.52,28.724v39.105l-20.381,0.064v-37.768c0-3.906-0.891-6.837-2.674-8.79
			c-1.783-1.952-4.289-2.93-7.516-2.93c-3.143,0-5.605,0.978-7.389,2.93c-1.826,1.953-2.738,4.884-2.738,8.79v37.703l-20.381,0.127
			v-90.502L287.822,1047.633z"/>
		<path fill="#FFFFFF" d="M386.158,1136.161c-1.359,0.596-2.357,0.998-2.994,1.211c-4.5,1.74-9.213,2.611-14.139,2.611
			c-6.496,0-12.633-1.508-18.406-4.523c-5.775-3.057-10.359-7.217-13.756-12.482c-3.439-5.35-5.16-11.314-5.16-17.896
			c0-4.969,0.998-9.596,2.994-13.885c1.994-4.246,4.734-7.939,8.215-11.082c3.439-3.142,7.43-5.541,11.975-7.197
			c4.543-1.74,9.256-2.611,14.139-2.611c4.84,0,9.553,0.851,14.139,2.548c4.586,1.698,8.576,4.119,11.975,7.261
			c3.566,3.227,6.327,6.921,8.28,11.082c1.994,4.289,2.992,8.916,2.992,13.885l-0.063,33.182l-20.19-0.191V1136.161z
			 M354.376,1096.864c-1.572,2.506-2.357,5.244-2.357,8.217c0,4.5,1.699,8.387,5.096,11.654c3.354,3.229,7.324,4.842,11.91,4.842
			c4.627,0,8.619-1.613,11.973-4.842c3.396-3.268,5.096-7.154,5.096-11.654c0-2.973-0.785-5.711-2.355-8.217
			c-1.572-2.505-3.674-4.5-6.307-5.986c-2.59-1.443-5.393-2.166-8.406-2.166c-2.93,0-5.711,0.723-8.344,2.166
			C358.048,1092.364,355.947,1094.359,354.376,1096.864z"/>
		<path fill="#FFFFFF" d="M437.746,1088.712c-5.182,0.213-7.77,3.821-7.77,10.828v38.531h-20.381v-38.531
			c0-18.556,9.383-28.3,28.15-29.234h1.146c18.766,0.935,28.15,10.679,28.15,29.234v38.531h-20.381v-38.531
			c0-7.007-2.59-10.615-7.77-10.828H437.746z"/>
		<path fill="#FFFFFF" d="M489.971,1059.861c-0.934,1.571-2.209,2.845-3.822,3.821s-3.396,1.465-5.35,1.465
			s-3.715-0.467-5.285-1.401c-1.615-0.977-2.889-2.271-3.822-3.885c-0.977-1.698-1.465-3.503-1.465-5.414
			c0-1.952,0.467-3.735,1.402-5.35c1.018-1.656,2.313-2.951,3.885-3.885c1.57-0.934,3.332-1.401,5.285-1.401s3.736,0.468,5.35,1.401
			c1.57,0.934,2.846,2.229,3.822,3.885c0.934,1.614,1.4,3.397,1.4,5.35C491.371,1056.485,490.904,1058.291,489.971,1059.861z
			 M491.309,1072.917v65.281h-20.316v-65.218L491.309,1072.917z"/>
		<path fill="#FFFFFF" d="M544.744,1092.533c-1.826-1.528-3.822-2.675-5.986-3.439c-2.252-0.764-4.629-1.146-7.133-1.146
			c-4.672,0-8.621,1.507-11.848,4.521c-3.27,3.016-4.904,6.752-4.904,11.211c0,3.48,0.701,6.602,2.104,9.361
			c1.357,2.76,3.375,4.947,6.049,6.561c2.59,1.656,5.584,2.482,8.98,2.482c5.01,0,9.299-1.592,12.865-4.775l11.146,14.139
			c-1.615,1.699-3.865,3.207-6.752,4.521c-2.93,1.316-5.945,2.293-9.043,2.93c-3.1,0.637-5.967,0.955-8.598,0.955
			c-7.389,0-13.906-1.551-19.553-4.648c-5.648-3.143-9.979-7.262-12.994-12.355c-3.014-5.18-4.521-10.721-4.521-16.623
			c0-5.393,0.912-10.275,2.738-14.649c1.869-4.458,4.438-8.279,7.707-11.464c3.227-3.099,7.154-5.541,11.783-7.324
			c4.586-1.741,9.531-2.611,14.84-2.611c4.33,0,8.555,0.68,12.674,2.038c4.16,1.401,7.834,3.375,11.018,5.923L544.744,1092.533z"/>
	</g>
	<polygon fill="#FFFFFF" points="761.387,775.811 681,703.585 681,802.06 681,860 623,860 623,916 681,916 681,968 623,968 
		623,1024 681,1024 681,1082 737,1082 737,1024 789,1024 789,968 737,968 737,916 789,916 789,860 737.33,860 737,860 737,815.385 
		761.387,840.735 789,812.982 789,860 798.33,860 845,860 845,802.06 845,703.585 	"/>
	<polygon fill="#FFFFFF" points="903,916 903,860 845.33,860 798.33,860 789,860 789,916.06 789,968.06 789,1024.06 789,1082 
		845,1082 845,1024 903,1024 903,968 845,968 845,916 	"/>
	<g>
		<path fill="#FFFFFF" d="M1025.182,896.674v91.586l-23.947-0.064v-42.672l-18.98,18.152l-17.641-17.451l-0.064,42.035h-23.564
			v-91.586l41.27,35.284L1025.182,896.674z"/>
		<path fill="#FFFFFF" d="M1097.086,941.384c1.91,4.29,2.867,8.876,2.867,13.757v0.574c0,0.213-0.023,0.445-0.064,0.699
			l-0.127,1.084h-7.898v0.127h-43.818c0.51,3.566,2.061,6.646,4.65,9.234c3.27,3.229,7.09,4.842,11.463,4.842
			c4.416,0,8.238-1.613,11.465-4.842l0.127-0.127l0.191-0.254l0.191-0.191l0.127-0.191l10.955,15.668
			c-3.143,2.547-6.328,4.48-9.555,5.795c-4.33,1.697-8.83,2.549-13.502,2.549c-6.326,0-12.207-1.508-17.641-4.523
			c-5.563-3.057-9.957-7.238-13.184-12.547c-3.313-5.307-4.969-11.271-4.969-17.896c0-4.967,0.955-9.553,2.867-13.757
			c1.91-4.245,4.543-7.939,7.896-11.082c3.396-3.227,7.219-5.668,11.465-7.324c4.373-1.697,8.895-2.548,13.564-2.548
			c4.672,0,9.172,0.851,13.502,2.548c4.289,1.656,8.131,4.076,11.529,7.261C1092.543,933.338,1095.176,937.053,1097.086,941.384z
			 M1064.158,938.836c-2.844,0-5.52,0.723-8.023,2.166c-1.529,0.934-3.016,2.251-4.459,3.948h24.967
			c-1.445-1.697-2.93-3.015-4.459-3.948C1069.678,939.559,1067.004,938.836,1064.158,938.836z"/>
		<path fill="#FFFFFF" d="M1153.322,942.657c-1.824-1.528-3.82-2.675-5.986-3.439c-2.25-0.764-4.627-1.146-7.133-1.146
			c-4.672,0-8.619,1.507-11.846,4.521c-3.27,3.016-4.904,6.752-4.904,11.211c0,3.48,0.701,6.602,2.102,9.361
			c1.359,2.76,3.375,4.947,6.051,6.561c2.59,1.656,5.582,2.482,8.98,2.482c5.01,0,9.299-1.592,12.865-4.775l11.145,14.139
			c-1.613,1.699-3.863,3.207-6.75,4.521c-2.93,1.316-5.945,2.293-9.045,2.93s-5.965,0.955-8.598,0.955
			c-7.389,0-13.906-1.551-19.553-4.648c-5.646-3.143-9.979-7.262-12.992-12.355c-3.016-5.18-4.521-10.721-4.521-16.623
			c0-5.393,0.912-10.275,2.738-14.649c1.867-4.458,4.436-8.279,7.707-11.464c3.225-3.099,7.152-5.541,11.781-7.324
			c4.586-1.741,9.531-2.611,14.84-2.611c4.33,0,8.555,0.68,12.674,2.038c4.16,1.401,7.834,3.375,11.02,5.923L1153.322,942.657z"/>
		<path fill="#FFFFFF" d="M1188.162,897.757v29.042c1.951-1.995,4.371-3.566,7.26-4.713c2.93-1.146,5.9-1.72,8.916-1.72
			c16.346,0,24.521,9.575,24.521,28.724v39.105l-20.381,0.064v-37.768c0-3.906-0.893-6.837-2.676-8.79
			c-1.783-1.952-4.289-2.93-7.516-2.93c-3.143,0-5.604,0.978-7.387,2.93c-1.826,1.953-2.738,4.884-2.738,8.79v37.703l-20.381,0.127
			V897.82L1188.162,897.757z"/>
		<path fill="#FFFFFF" d="M1286.496,986.285c-1.359,0.596-2.355,0.998-2.992,1.211c-4.502,1.74-9.215,2.611-14.141,2.611
			c-6.496,0-12.631-1.508-18.404-4.523c-5.775-3.057-10.361-7.217-13.758-12.482c-3.439-5.35-5.158-11.314-5.158-17.896
			c0-4.969,0.996-9.596,2.992-13.885c1.996-4.246,4.734-7.939,8.217-11.082c3.439-3.142,7.43-5.541,11.973-7.197
			c4.543-1.74,9.256-2.611,14.139-2.611c4.842,0,9.555,0.851,14.141,2.548c4.584,1.698,8.576,4.119,11.973,7.261
			c3.566,3.227,6.326,6.921,8.279,11.082c1.996,4.289,2.994,8.916,2.994,13.885l-0.064,33.182l-20.189-0.191V986.285z
			 M1254.715,946.988c-1.57,2.506-2.355,5.244-2.355,8.217c0,4.5,1.697,8.387,5.096,11.654c3.354,3.229,7.324,4.842,11.908,4.842
			c4.629,0,8.619-1.613,11.975-4.842c3.396-3.268,5.096-7.154,5.096-11.654c0-2.973-0.787-5.711-2.357-8.217
			c-1.57-2.505-3.672-4.5-6.305-5.986c-2.59-1.443-5.393-2.166-8.408-2.166c-2.93,0-5.711,0.723-8.342,2.166
			C1258.389,942.488,1256.285,944.483,1254.715,946.988z"/>
		<path fill="#FFFFFF" d="M1338.084,938.836c-5.18,0.213-7.77,3.821-7.77,10.828v38.531h-20.381v-38.531
			c0-18.556,9.383-28.3,28.15-29.234h1.146c18.768,0.935,28.15,10.679,28.15,29.234v38.531h-20.379v-38.531
			c0-7.007-2.592-10.615-7.771-10.828H1338.084z"/>
		<path fill="#FFFFFF" d="M1390.309,909.985c-0.934,1.571-2.207,2.845-3.82,3.821s-3.398,1.465-5.35,1.465
			c-1.953,0-3.717-0.467-5.287-1.401c-1.613-0.977-2.887-2.271-3.82-3.885c-0.979-1.698-1.465-3.503-1.465-5.414
			c0-1.952,0.467-3.735,1.4-5.35c1.02-1.656,2.314-2.951,3.885-3.885s3.334-1.401,5.287-1.401c1.951,0,3.736,0.468,5.35,1.401
			c1.57,0.934,2.844,2.229,3.82,3.885c0.934,1.614,1.402,3.397,1.402,5.35C1391.711,906.609,1391.242,908.415,1390.309,909.985z
			 M1391.646,923.041v65.281h-20.316v-65.218L1391.646,923.041z"/>
		<path fill="#FFFFFF" d="M1445.082,942.657c-1.824-1.528-3.82-2.675-5.986-3.439c-2.25-0.764-4.627-1.146-7.133-1.146
			c-4.672,0-8.619,1.507-11.846,4.521c-3.27,3.016-4.904,6.752-4.904,11.211c0,3.48,0.701,6.602,2.102,9.361
			c1.359,2.76,3.375,4.947,6.051,6.561c2.59,1.656,5.582,2.482,8.98,2.482c5.01,0,9.299-1.592,12.865-4.775l11.145,14.139
			c-1.613,1.699-3.863,3.207-6.75,4.521c-2.93,1.316-5.945,2.293-9.045,2.93s-5.965,0.955-8.598,0.955
			c-7.389,0-13.906-1.551-19.553-4.648c-5.646-3.143-9.979-7.262-12.992-12.355c-3.016-5.18-4.521-10.721-4.521-16.623
			c0-5.393,0.912-10.275,2.738-14.649c1.867-4.458,4.436-8.279,7.707-11.464c3.225-3.099,7.152-5.541,11.781-7.324
			c4.586-1.741,9.531-2.611,14.84-2.611c4.33,0,8.555,0.68,12.674,2.038c4.16,1.401,7.834,3.375,11.02,5.923L1445.082,942.657z"/>
	</g>
	<polygon points="296.387,1312.209 216,1239.983 216,1338.458 216,1397 158,1397 158,1453 216,1453 216,1505 158,1505 158,1561 
		216,1561 216,1619 272,1619 272,1561 324,1561 324,1505 272,1505 272,1453 324,1453 324,1397 272.331,1397 272,1397 272,1351.783 
		296.387,1377.134 324,1349.381 324,1397 333.331,1397 380,1397 380,1338.458 380,1239.983 	"/>
	<polygon points="438,1453 438,1397 380.331,1397 333.331,1397 324,1397 324,1452.458 324,1504.458 324,1560.458 324,1619 380,1619 
		380,1561 438,1561 438,1505 380,1505 380,1453 	"/>
	<g>
		<path d="M124.841,1640.872v91.586l-23.947-0.064v-42.672l-18.979,18.152l-17.642-17.451l-0.064,42.035H40.644v-91.586
			l41.271,35.284L124.841,1640.872z"/>
		<path d="M196.747,1685.582c1.91,4.29,2.866,8.876,2.866,13.757v0.574c0,0.213-0.022,0.445-0.064,0.699l-0.127,1.084h-7.897v0.127
			h-43.818c0.51,3.566,2.06,6.646,4.649,9.234c3.27,3.229,7.091,4.842,11.464,4.842c4.416,0,8.237-1.613,11.464-4.842l0.128-0.127
			l0.191-0.254l0.19-0.191l0.128-0.191l10.954,15.668c-3.143,2.547-6.327,4.48-9.554,5.795c-4.33,1.697-8.831,2.549-13.502,2.549
			c-6.327,0-12.207-1.508-17.642-4.523c-5.563-3.057-9.957-7.238-13.184-12.547c-3.312-5.307-4.968-11.271-4.968-17.896
			c0-4.967,0.955-9.553,2.866-13.757c1.91-4.245,4.543-7.939,7.897-11.082c3.396-3.227,7.218-5.668,11.464-7.324
			c4.373-1.697,8.895-2.548,13.565-2.548s9.172,0.851,13.502,2.548c4.288,1.656,8.131,4.076,11.528,7.261
			C192.203,1677.536,194.835,1681.251,196.747,1685.582z M163.819,1683.034c-2.845,0-5.52,0.723-8.024,2.166
			c-1.528,0.934-3.016,2.251-4.458,3.948h24.966c-1.444-1.697-2.93-3.015-4.458-3.948
			C169.338,1683.757,166.664,1683.034,163.819,1683.034z"/>
		<path d="M252.983,1686.855c-1.825-1.528-3.821-2.675-5.986-3.439c-2.251-0.764-4.628-1.146-7.133-1.146
			c-4.672,0-8.62,1.507-11.847,4.521c-3.27,3.016-4.904,6.752-4.904,11.211c0,3.48,0.701,6.602,2.103,9.361
			c1.358,2.76,3.375,4.947,6.05,6.561c2.59,1.656,5.583,2.482,8.98,2.482c5.01,0,9.299-1.592,12.865-4.775l11.146,14.139
			c-1.614,1.699-3.864,3.207-6.751,4.521c-2.93,1.316-5.945,2.293-9.044,2.93c-3.1,0.637-5.966,0.955-8.598,0.955
			c-7.389,0-13.906-1.551-19.553-4.648c-5.647-3.143-9.979-7.262-12.993-12.355c-3.015-5.18-4.521-10.721-4.521-16.623
			c0-5.393,0.912-10.275,2.738-14.649c1.868-4.458,4.437-8.279,7.707-11.464c3.226-3.099,7.153-5.541,11.782-7.324
			c4.586-1.741,9.531-2.611,14.84-2.611c4.33,0,8.555,0.68,12.674,2.038c4.16,1.401,7.834,3.375,11.019,5.923L252.983,1686.855z"/>
		<path d="M287.822,1641.955v29.042c1.952-1.995,4.372-3.566,7.26-4.713c2.93-1.146,5.902-1.72,8.918-1.72
			c16.346,0,24.52,9.575,24.52,28.724v39.105l-20.381,0.064v-37.768c0-3.906-0.891-6.837-2.674-8.79
			c-1.783-1.952-4.289-2.93-7.516-2.93c-3.143,0-5.605,0.978-7.389,2.93c-1.826,1.953-2.738,4.884-2.738,8.79v37.703l-20.381,0.127
			v-90.502L287.822,1641.955z"/>
		<path d="M386.158,1730.483c-1.359,0.596-2.357,0.998-2.994,1.211c-4.5,1.74-9.213,2.611-14.139,2.611
			c-6.496,0-12.633-1.508-18.406-4.523c-5.775-3.057-10.359-7.217-13.756-12.482c-3.439-5.35-5.16-11.314-5.16-17.896
			c0-4.969,0.998-9.596,2.994-13.885c1.994-4.246,4.734-7.939,8.215-11.082c3.439-3.142,7.43-5.541,11.975-7.197
			c4.543-1.74,9.256-2.611,14.139-2.611c4.84,0,9.553,0.851,14.139,2.548c4.586,1.698,8.576,4.119,11.975,7.261
			c3.566,3.227,6.327,6.921,8.28,11.082c1.994,4.289,2.992,8.916,2.992,13.885l-0.063,33.182l-20.19-0.191V1730.483z
			 M354.376,1691.187c-1.572,2.506-2.357,5.244-2.357,8.217c0,4.5,1.699,8.387,5.096,11.654c3.354,3.229,7.324,4.842,11.91,4.842
			c4.627,0,8.619-1.613,11.973-4.842c3.396-3.268,5.096-7.154,5.096-11.654c0-2.973-0.785-5.711-2.355-8.217
			c-1.572-2.505-3.674-4.5-6.307-5.986c-2.59-1.443-5.393-2.166-8.406-2.166c-2.93,0-5.711,0.723-8.344,2.166
			C358.048,1686.687,355.947,1688.682,354.376,1691.187z"/>
		<path d="M437.746,1683.034c-5.182,0.213-7.77,3.821-7.77,10.828v38.531h-20.381v-38.531c0-18.556,9.383-28.3,28.15-29.234h1.146
			c18.766,0.935,28.15,10.679,28.15,29.234v38.531h-20.381v-38.531c0-7.007-2.59-10.615-7.77-10.828H437.746z"/>
		<path d="M489.971,1654.184c-0.934,1.571-2.209,2.845-3.822,3.821s-3.396,1.465-5.35,1.465s-3.715-0.467-5.285-1.401
			c-1.615-0.977-2.889-2.271-3.822-3.885c-0.977-1.698-1.465-3.503-1.465-5.414c0-1.952,0.467-3.735,1.402-5.35
			c1.018-1.656,2.313-2.951,3.885-3.885c1.57-0.934,3.332-1.401,5.285-1.401s3.736,0.468,5.35,1.401
			c1.57,0.934,2.846,2.229,3.822,3.885c0.934,1.614,1.4,3.397,1.4,5.35C491.371,1650.808,490.904,1652.613,489.971,1654.184z
			 M491.309,1667.239v65.281h-20.316v-65.218L491.309,1667.239z"/>
		<path d="M544.744,1686.855c-1.826-1.528-3.822-2.675-5.986-3.439c-2.252-0.764-4.629-1.146-7.133-1.146
			c-4.672,0-8.621,1.507-11.848,4.521c-3.27,3.016-4.904,6.752-4.904,11.211c0,3.48,0.701,6.602,2.104,9.361
			c1.357,2.76,3.375,4.947,6.049,6.561c2.59,1.656,5.584,2.482,8.98,2.482c5.01,0,9.299-1.592,12.865-4.775l11.146,14.139
			c-1.615,1.699-3.865,3.207-6.752,4.521c-2.93,1.316-5.945,2.293-9.043,2.93c-3.1,0.637-5.967,0.955-8.598,0.955
			c-7.389,0-13.906-1.551-19.553-4.648c-5.648-3.143-9.979-7.262-12.994-12.355c-3.014-5.18-4.521-10.721-4.521-16.623
			c0-5.393,0.912-10.275,2.738-14.649c1.869-4.458,4.438-8.279,7.707-11.464c3.227-3.099,7.154-5.541,11.783-7.324
			c4.586-1.741,9.531-2.611,14.84-2.611c4.33,0,8.555,0.68,12.674,2.038c4.16,1.401,7.834,3.375,11.018,5.923L544.744,1686.855z"/>
	</g>
	<polygon points="761.387,1370.133 681,1297.907 681,1396.382 681,1455 623,1455 623,1511 681,1511 681,1563 623,1563 623,1619 
		681,1619 681,1677 737,1677 737,1619 789,1619 789,1563 737,1563 737,1511 789,1511 789,1455 737.33,1455 737,1455 737,1409.707 
		761.387,1435.058 789,1407.305 789,1455 798.33,1455 845,1455 845,1396.382 845,1297.907 	"/>
	<polygon points="903,1511 903,1455 845.33,1455 798.33,1455 789,1455 789,1510.382 789,1562.382 789,1618.382 789,1677 845,1677 
		845,1619 903,1619 903,1563 845,1563 845,1511 	"/>
	<g>
		<path d="M1025.182,1490.996v91.586l-23.947-0.064v-42.672l-18.98,18.152l-17.641-17.451l-0.064,42.035h-23.564v-91.586
			l41.27,35.284L1025.182,1490.996z"/>
		<path d="M1097.086,1535.706c1.91,4.29,2.867,8.876,2.867,13.757v0.574c0,0.213-0.023,0.445-0.064,0.699l-0.127,1.084h-7.898v0.127
			h-43.818c0.51,3.566,2.061,6.646,4.65,9.234c3.27,3.229,7.09,4.842,11.463,4.842c4.416,0,8.238-1.613,11.465-4.842l0.127-0.127
			l0.191-0.254l0.191-0.191l0.127-0.191l10.955,15.668c-3.143,2.547-6.328,4.48-9.555,5.795c-4.33,1.697-8.83,2.549-13.502,2.549
			c-6.326,0-12.207-1.508-17.641-4.523c-5.563-3.057-9.957-7.238-13.184-12.547c-3.313-5.307-4.969-11.271-4.969-17.896
			c0-4.967,0.955-9.553,2.867-13.757c1.91-4.245,4.543-7.939,7.896-11.082c3.396-3.227,7.219-5.668,11.465-7.324
			c4.373-1.697,8.895-2.548,13.564-2.548c4.672,0,9.172,0.851,13.502,2.548c4.289,1.656,8.131,4.076,11.529,7.261
			C1092.543,1527.66,1095.176,1531.375,1097.086,1535.706z M1064.158,1533.158c-2.844,0-5.52,0.723-8.023,2.166
			c-1.529,0.934-3.016,2.251-4.459,3.948h24.967c-1.445-1.697-2.93-3.015-4.459-3.948
			C1069.678,1533.881,1067.004,1533.158,1064.158,1533.158z"/>
		<path d="M1153.322,1536.979c-1.824-1.528-3.82-2.675-5.986-3.439c-2.25-0.764-4.627-1.146-7.133-1.146
			c-4.672,0-8.619,1.507-11.846,4.521c-3.27,3.016-4.904,6.752-4.904,11.211c0,3.48,0.701,6.602,2.102,9.361
			c1.359,2.76,3.375,4.947,6.051,6.561c2.59,1.656,5.582,2.482,8.98,2.482c5.01,0,9.299-1.592,12.865-4.775l11.145,14.139
			c-1.613,1.699-3.863,3.207-6.75,4.521c-2.93,1.316-5.945,2.293-9.045,2.93s-5.965,0.955-8.598,0.955
			c-7.389,0-13.906-1.551-19.553-4.648c-5.646-3.143-9.979-7.262-12.992-12.355c-3.016-5.18-4.521-10.721-4.521-16.623
			c0-5.393,0.912-10.275,2.738-14.649c1.867-4.458,4.436-8.279,7.707-11.464c3.225-3.099,7.152-5.541,11.781-7.324
			c4.586-1.741,9.531-2.611,14.84-2.611c4.33,0,8.555,0.68,12.674,2.038c4.16,1.401,7.834,3.375,11.02,5.923L1153.322,1536.979z"/>
		<path d="M1188.162,1492.079v29.042c1.951-1.995,4.371-3.566,7.26-4.713c2.93-1.146,5.9-1.72,8.916-1.72
			c16.346,0,24.521,9.575,24.521,28.724v39.105l-20.381,0.064v-37.768c0-3.906-0.893-6.837-2.676-8.79
			c-1.783-1.952-4.289-2.93-7.516-2.93c-3.143,0-5.604,0.978-7.387,2.93c-1.826,1.953-2.738,4.884-2.738,8.79v37.703l-20.381,0.127
			v-90.502L1188.162,1492.079z"/>
		<path d="M1286.496,1580.607c-1.359,0.596-2.355,0.998-2.992,1.211c-4.502,1.74-9.215,2.611-14.141,2.611
			c-6.496,0-12.631-1.508-18.404-4.523c-5.775-3.057-10.361-7.217-13.758-12.482c-3.439-5.35-5.158-11.314-5.158-17.896
			c0-4.969,0.996-9.596,2.992-13.885c1.996-4.246,4.734-7.939,8.217-11.082c3.439-3.142,7.43-5.541,11.973-7.197
			c4.543-1.74,9.256-2.611,14.139-2.611c4.842,0,9.555,0.851,14.141,2.548c4.584,1.698,8.576,4.119,11.973,7.261
			c3.566,3.227,6.326,6.921,8.279,11.082c1.996,4.289,2.994,8.916,2.994,13.885l-0.064,33.182l-20.189-0.191V1580.607z
			 M1254.715,1541.311c-1.57,2.506-2.355,5.244-2.355,8.217c0,4.5,1.697,8.387,5.096,11.654c3.354,3.229,7.324,4.842,11.908,4.842
			c4.629,0,8.619-1.613,11.975-4.842c3.396-3.268,5.096-7.154,5.096-11.654c0-2.973-0.787-5.711-2.357-8.217
			c-1.57-2.505-3.672-4.5-6.305-5.986c-2.59-1.443-5.393-2.166-8.408-2.166c-2.93,0-5.711,0.723-8.342,2.166
			C1258.389,1536.811,1256.285,1538.806,1254.715,1541.311z"/>
		<path d="M1338.084,1533.158c-5.18,0.213-7.77,3.821-7.77,10.828v38.531h-20.381v-38.531c0-18.556,9.383-28.3,28.15-29.234h1.146
			c18.768,0.935,28.15,10.679,28.15,29.234v38.531h-20.379v-38.531c0-7.007-2.592-10.615-7.771-10.828H1338.084z"/>
		<path d="M1390.309,1504.308c-0.934,1.571-2.207,2.845-3.82,3.821s-3.398,1.465-5.35,1.465c-1.953,0-3.717-0.467-5.287-1.401
			c-1.613-0.977-2.887-2.271-3.82-3.885c-0.979-1.698-1.465-3.503-1.465-5.414c0-1.952,0.467-3.735,1.4-5.35
			c1.02-1.656,2.314-2.951,3.885-3.885s3.334-1.401,5.287-1.401c1.951,0,3.736,0.468,5.35,1.401c1.57,0.934,2.844,2.229,3.82,3.885
			c0.934,1.614,1.402,3.397,1.402,5.35C1391.711,1500.932,1391.242,1502.737,1390.309,1504.308z M1391.646,1517.363v65.281h-20.316
			v-65.218L1391.646,1517.363z"/>
		<path d="M1445.082,1536.979c-1.824-1.528-3.82-2.675-5.986-3.439c-2.25-0.764-4.627-1.146-7.133-1.146
			c-4.672,0-8.619,1.507-11.846,4.521c-3.27,3.016-4.904,6.752-4.904,11.211c0,3.48,0.701,6.602,2.102,9.361
			c1.359,2.76,3.375,4.947,6.051,6.561c2.59,1.656,5.582,2.482,8.98,2.482c5.01,0,9.299-1.592,12.865-4.775l11.145,14.139
			c-1.613,1.699-3.863,3.207-6.75,4.521c-2.93,1.316-5.945,2.293-9.045,2.93s-5.965,0.955-8.598,0.955
			c-7.389,0-13.906-1.551-19.553-4.648c-5.646-3.143-9.979-7.262-12.992-12.355c-3.016-5.18-4.521-10.721-4.521-16.623
			c0-5.393,0.912-10.275,2.738-14.649c1.867-4.458,4.436-8.279,7.707-11.464c3.225-3.099,7.152-5.541,11.781-7.324
			c4.586-1.741,9.531-2.611,14.84-2.611c4.33,0,8.555,0.68,12.674,2.038c4.16,1.401,7.834,3.375,11.02,5.923L1445.082,1536.979z"/>
	</g>
</g>
<g id="Layer_1">
</g>
</svg>
